<?xml version="1.0" encoding="UTF-8"?>
<svg id="Layer_1" xmlns="http://www.w3.org/2000/svg" version="1.1" viewBox="0 0 1920 484.94">
  <!-- Generator: Adobe Illustrator 29.5.1, SVG Export Plug-In . SVG Version: 2.1.0 Build 141)  -->
  <defs>
    <style>
      .st0 {
        fill: #111;
      }

      .st1 {
        fill: #59a52c;
      }
    </style>
  </defs>
  <path class="st1" d="M129.78,29.23c-7.06,13.95-11.12,29.68-11.11,46.38.02,47.02,31.61,86.59,74.71,98.86,19.48-38.61,13.14-86.89-19.12-119.12-12.82-12.81-28.2-21.49-44.48-26.13h0Z"/>
  <path class="st1" d="M150.97,218.36c-11.89-43.72-51.78-75.9-99.27-75.88-17.94,0-34.79,4.62-49.47,12.69,4.55,16.77,13.33,32.63,26.51,45.79,33.12,33.09,83.15,38.84,122.23,17.39h0Z"/>
  <path class="st1" d="M252.58,317.09c-22.66,39.36-17.27,90.45,16.4,124.07,12.13,12.11,26.54,20.51,41.84,25.31,8.7-15.11,13.74-32.58,13.73-51.26-.02-46.03-30.27-84.98-71.97-98.12h0Z"/>
  <path class="st1" d="M293.65,277.32c13.45,41.22,52.16,71.03,97.88,71,17.34,0,33.65-4.34,47.98-11.92-4.87-14.93-13.14-28.99-25.02-40.85-32.73-32.7-81.98-38.76-120.84-18.23h0Z"/>
  <path class="st1" d="M118.68,415.29c0,18.65,5.05,36.09,13.74,51.18,15.33-4.81,29.76-13.23,41.9-25.38,33.61-33.63,38.98-84.68,16.33-124.01-41.74,13.15-72,52.14-71.97,98.21h0Z"/>
  <path class="st1" d="M149.57,277.32c-38.89-20.56-88.17-14.47-120.89,18.28-11.85,11.85-20.1,25.9-24.96,40.81,14.36,7.59,30.7,11.92,48.07,11.91,45.68-.02,84.35-29.81,97.78-71h0Z"/>
  <path class="st1" d="M324.55,75.53c0-16.68-4.07-32.37-11.12-46.3-16.3,4.65-31.68,13.34-44.51,26.18-32.22,32.23-38.52,80.49-19.07,119.06,43.12-12.29,74.73-51.89,74.7-98.94h0Z"/>
  <path class="st1" d="M292.26,218.36c39.11,21.46,89.18,15.69,122.29-17.46,13.14-13.15,21.9-28.98,26.44-45.73-14.7-8.08-31.58-12.69-49.55-12.69-47.46.02-87.29,32.19-99.19,75.87h0Z"/>
  <path class="st0" d="M561.88,63.61v143.09h113.33c60.23,0,97.14-18.13,97.14-75.11,0-43.38-26.55-67.98-96.49-67.98h-113.97ZM499.06,474.75V9.87h204.64c86.78,0,131.46,53.74,131.46,117.19,0,30.43-11.01,73.16-62.17,97.12,30.44,12.3,84.19,33.67,84.19,113.31,0,74.46-55.04,137.26-158.01,137.26h-200.1ZM561.88,257.85v163.16h134.05c65.41,0,98.43-33.02,98.43-84.82,0-65.39-57.63-78.34-108.79-78.34h-123.69ZM993.81,63.61v143.09h113.33c60.23,0,97.14-18.13,97.14-75.11,0-43.38-26.55-67.98-96.49-67.98h-113.97ZM931,474.75V9.87h204.64c86.78,0,131.46,53.74,131.46,117.19,0,30.43-11.01,73.16-62.17,97.12,30.44,12.3,84.19,33.67,84.19,113.31,0,74.46-55.04,137.26-158.01,137.26h-200.1ZM993.81,257.85v163.16h134.05c65.41,0,98.43-33.02,98.43-84.82,0-65.39-57.63-78.34-108.79-78.34h-123.69ZM1436.76,9.87v464.88h-62.82V9.87h62.82ZM1803.94,339.43h-186.5l-48.57,135.32h-64.76L1678.95,9.87h71.23l168.37,464.88h-68.64l-45.98-135.32h0ZM1636.86,283.75h144.41l-68.64-204.6h-1.3l-74.47,204.6h0Z"/>
</svg>