<svg width="1605" height="583" viewBox="0 0 1605 583" fill="none" xmlns="http://www.w3.org/2000/svg">
<g clip-path="url(#clip0_9_6249)">
<path d="M561.755 294.6V191.55H624.775C630.076 191.55 634.878 192.6 639.179 194.7C643.481 196.8 646.902 199.75 649.452 203.55C652.003 207.35 653.284 211.8 653.284 216.9C653.284 221.4 652.503 225.25 650.953 228.45C649.402 231.65 647.352 234.25 644.801 236.25C642.25 238.25 639.369 239.75 636.178 240.75V241.35C639.879 242.15 643.231 243.58 646.231 245.63C649.232 247.68 651.603 250.45 653.354 253.95C655.104 257.45 655.974 261.7 655.974 266.7C655.974 272.6 654.574 277.63 651.773 281.77C648.972 285.92 645.271 289.1 640.67 291.3C636.068 293.5 630.917 294.6 625.215 294.6H561.745H561.755ZM588.613 232.5H615.472C617.673 232.5 619.543 232.05 621.094 231.15C622.644 230.25 623.844 229 624.695 227.4C625.545 225.8 625.975 223.9 625.975 221.7C625.975 218.5 625.025 216 623.124 214.2C621.224 212.4 618.823 211.5 615.922 211.5H588.613V232.5ZM588.613 273.9H617.873C621.074 273.9 623.654 272.95 625.605 271.05C627.556 269.15 628.526 266.25 628.526 262.35C628.526 260.25 628.096 258.38 627.246 256.73C626.395 255.08 625.145 253.8 623.494 252.9C621.844 252 619.823 251.55 617.422 251.55H588.613V273.9Z" fill="#DBE801"/>
<path d="M671.589 204.9V186H696.197V204.9H671.589ZM671.589 294.6V215.55H696.197V294.6H671.589Z" fill="#DBE801"/>
<path d="M753.065 296.4C744.262 296.4 736.73 294.9 730.478 291.9C724.226 288.9 719.424 284.33 716.073 278.18C712.722 272.03 711.042 264.3 711.042 255.01C711.042 245.72 712.712 238.01 716.073 231.91C719.424 225.81 724.226 221.26 730.478 218.26C736.73 215.26 744.252 213.76 753.065 213.76C761.877 213.76 769.54 215.26 775.802 218.26C782.054 221.26 786.855 225.81 790.206 231.91C793.557 238.01 795.238 245.71 795.238 255.01C795.238 264.31 793.557 272.03 790.206 278.18C786.855 284.33 782.054 288.9 775.802 291.9C769.55 294.9 761.968 296.4 753.065 296.4ZM753.065 278.55C757.166 278.55 760.487 277.75 763.048 276.15C765.599 274.55 767.449 272.23 768.6 269.18C769.75 266.13 770.32 262.36 770.32 257.86V252.31C770.32 247.81 769.74 244.01 768.6 240.91C767.449 237.81 765.599 235.49 763.048 233.94C760.497 232.39 757.166 231.62 753.065 231.62C748.963 231.62 745.792 232.4 743.232 233.94C740.681 235.49 738.83 237.82 737.68 240.91C736.53 244.01 735.959 247.81 735.959 252.31V257.86C735.959 262.36 736.53 266.14 737.68 269.18C738.83 272.23 740.681 274.56 743.232 276.15C745.782 277.75 749.053 278.55 753.065 278.55Z" fill="#DBE801"/>
<path d="M812.033 294.6V191.55H871.902C879.504 191.55 885.856 192.98 890.958 195.83C896.059 198.68 899.88 202.58 902.431 207.53C904.982 212.48 906.262 218.01 906.262 224.11C906.262 230.71 904.732 236.58 901.681 241.73C898.63 246.88 894.349 250.91 888.847 253.8L909.553 294.6H879.544L862.439 258.3H838.881V294.6H812.023H812.033ZM838.891 238.35H866.65C870.351 238.35 873.332 237.13 875.583 234.67C877.834 232.22 878.964 228.95 878.964 224.85C878.964 222.15 878.464 219.85 877.463 217.95C876.463 216.05 875.063 214.57 873.262 213.52C871.462 212.47 869.261 211.95 866.66 211.95H838.901V238.35H838.891Z" fill="#DBE801"/>
<path d="M959.079 296.4C950.076 296.4 942.424 294.92 936.122 291.98C929.82 289.03 924.988 284.51 921.647 278.4C918.296 272.3 916.616 264.5 916.616 255C916.616 245.5 918.266 238 921.567 231.9C924.868 225.8 929.62 221.25 935.822 218.25C942.024 215.25 949.476 213.75 958.179 213.75C966.881 213.75 974.064 215.2 980.015 218.1C985.967 221 990.489 225.45 993.6 231.45C996.701 237.45 998.251 245.2 998.251 254.7V259.95H941.533C941.533 264.15 942.134 267.7 943.334 270.6C944.534 273.5 946.385 275.7 948.886 277.2C951.387 278.7 954.738 279.45 958.939 279.45C961.44 279.45 963.64 279.15 965.541 278.55C967.442 277.95 969.042 277.08 970.342 275.93C971.643 274.78 972.643 273.41 973.343 271.81C974.044 270.21 974.394 268.41 974.394 266.41H998.251C998.251 271.21 997.371 275.49 995.63 279.24C993.88 282.99 991.299 286.14 987.898 288.69C984.497 291.24 980.366 293.17 975.514 294.47C970.663 295.77 965.181 296.42 959.089 296.42L959.079 296.4ZM941.674 246.3H973.183C973.183 243.7 972.853 241.42 972.213 239.48C971.563 237.53 970.613 235.91 969.362 234.6C968.112 233.3 966.611 232.33 964.861 231.67C963.11 231.02 961.08 230.7 958.779 230.7C955.178 230.7 952.177 231.3 949.776 232.5C947.375 233.7 945.525 235.45 944.224 237.75C942.924 240.05 942.074 242.9 941.674 246.3Z" fill="#DBE801"/>
<path d="M1033.95 294.6L1004.24 215.55H1030.5L1040.55 245.7C1041.05 247.2 1041.7 249.38 1042.5 252.23C1043.31 255.08 1044.16 258.03 1045.06 261.08C1045.96 264.13 1046.76 266.96 1047.46 269.55H1048.36C1049.06 267.15 1049.83 264.45 1050.68 261.45C1051.53 258.45 1052.35 255.52 1053.16 252.67C1053.96 249.82 1054.66 247.5 1055.26 245.7L1065.16 215.55H1089.62L1059.76 294.6H1033.95Z" fill="#DBE801"/>
<path d="M1137.63 296.4C1128.83 296.4 1121.3 294.9 1115.05 291.9C1108.8 288.9 1103.99 284.33 1100.64 278.18C1097.29 272.03 1095.61 264.3 1095.61 255.01C1095.61 245.72 1097.28 238.01 1100.64 231.91C1103.99 225.81 1108.8 221.26 1115.05 218.26C1121.3 215.26 1128.82 213.76 1137.63 213.76C1146.45 213.76 1154.11 215.26 1160.37 218.26C1166.62 221.26 1171.43 225.81 1174.78 231.91C1178.13 238.01 1179.81 245.71 1179.81 255.01C1179.81 264.31 1178.13 272.03 1174.78 278.18C1171.43 284.33 1166.62 288.9 1160.37 291.9C1154.12 294.9 1146.54 296.4 1137.63 296.4ZM1137.63 278.55C1141.74 278.55 1145.06 277.75 1147.62 276.15C1150.17 274.55 1152.02 272.23 1153.17 269.18C1154.32 266.13 1154.89 262.36 1154.89 257.86V252.31C1154.89 247.81 1154.31 244.01 1153.17 240.91C1152.02 237.81 1150.17 235.49 1147.62 233.94C1145.07 232.39 1141.74 231.62 1137.63 231.62C1133.53 231.62 1130.36 232.4 1127.8 233.94C1125.25 235.49 1123.4 237.82 1122.25 240.91C1121.1 244.01 1120.53 247.81 1120.53 252.31V257.86C1120.53 262.36 1121.1 266.14 1122.25 269.18C1123.4 272.23 1125.25 274.56 1127.8 276.15C1130.35 277.75 1133.62 278.55 1137.63 278.55Z" fill="#DBE801"/>
<path d="M1194.65 294.6V186H1219.26V294.6H1194.65Z" fill="#DBE801"/>
<path d="M1264.12 296.4C1255.62 296.4 1249.04 294.05 1244.4 289.35C1239.75 284.65 1237.42 277.45 1237.42 267.75V215.55H1262.02V264.3C1262.02 266.4 1262.29 268.25 1262.85 269.85C1263.4 271.45 1264.17 272.8 1265.17 273.9C1266.17 275 1267.45 275.8 1269.01 276.3C1270.56 276.8 1272.24 277.05 1274.04 277.05C1276.94 277.05 1279.49 276.38 1281.69 275.02C1283.89 273.67 1285.64 271.82 1286.94 269.47C1288.24 267.12 1288.89 264.55 1288.89 261.75V215.55H1313.5V294.6H1293.24L1291.74 283.35H1290.69C1288.89 285.95 1286.61 288.25 1283.87 290.25C1281.12 292.25 1278.07 293.77 1274.72 294.82C1271.37 295.87 1267.84 296.39 1264.13 296.39L1264.12 296.4Z" fill="#DBE801"/>
<path d="M1360 296.4C1354.9 296.4 1350.57 295.62 1347.03 294.08C1343.48 292.53 1340.83 290.2 1339.08 287.11C1337.33 284.01 1336.46 280.26 1336.46 275.86V233.41H1326.1V215.56H1337.21L1342.31 192.46H1360.91V215.56H1376.37V233.41H1360.91V269.86C1360.91 272.66 1361.46 274.81 1362.56 276.31C1363.67 277.81 1365.67 278.56 1368.57 278.56H1376.37V293.86C1375.07 294.26 1373.44 294.68 1371.49 295.14C1369.54 295.59 1367.56 295.91 1365.56 296.11C1363.56 296.31 1361.7 296.41 1360 296.41V296.4Z" fill="#DBE801"/>
<path d="M1390 204.9V186H1414.61V204.9H1390ZM1390 294.6V215.55H1414.61V294.6H1390Z" fill="#DBE801"/>
<path d="M1471.48 296.4C1462.68 296.4 1455.14 294.9 1448.89 291.9C1442.64 288.9 1437.84 284.33 1434.49 278.18C1431.14 272.03 1429.46 264.3 1429.46 255.01C1429.46 245.72 1431.13 238.01 1434.49 231.91C1437.84 225.81 1442.64 221.26 1448.89 218.26C1455.14 215.26 1462.67 213.76 1471.48 213.76C1480.29 213.76 1487.95 215.26 1494.22 218.26C1500.47 221.26 1505.27 225.81 1508.62 231.91C1511.97 238.01 1513.65 245.71 1513.65 255.01C1513.65 264.31 1511.97 272.03 1508.62 278.18C1505.27 284.33 1500.47 288.9 1494.22 291.9C1487.96 294.9 1480.38 296.4 1471.48 296.4ZM1471.48 278.55C1475.58 278.55 1478.9 277.75 1481.46 276.15C1484.01 274.55 1485.86 272.23 1487.01 269.18C1488.16 266.13 1488.73 262.36 1488.73 257.86V252.31C1488.73 247.81 1488.15 244.01 1487.01 240.91C1485.86 237.81 1484.01 235.49 1481.46 233.94C1478.91 232.39 1475.58 231.62 1471.48 231.62C1467.38 231.62 1464.21 232.4 1461.65 233.94C1459.09 235.49 1457.24 237.82 1456.09 240.91C1454.94 244.01 1454.37 247.81 1454.37 252.31V257.86C1454.37 262.36 1454.94 266.14 1456.09 269.18C1457.24 272.23 1459.09 274.56 1461.65 276.15C1464.2 277.75 1467.47 278.55 1471.48 278.55Z" fill="#DBE801"/>
<path d="M1528.5 294.6V215.55H1548.75L1550.55 226.8H1551.6C1553.6 224.1 1555.9 221.75 1558.51 219.75C1561.11 217.75 1564.06 216.25 1567.36 215.25C1570.66 214.25 1574.16 213.75 1577.86 213.75C1583.56 213.75 1588.38 214.8 1592.34 216.9C1596.29 219 1599.31 222.15 1601.42 226.35C1603.53 230.55 1604.57 235.9 1604.57 242.4V294.6H1579.96V245.85C1579.96 243.65 1579.68 241.78 1579.13 240.23C1578.58 238.68 1577.8 237.36 1576.8 236.26C1575.8 235.16 1574.55 234.36 1573.05 233.86C1571.55 233.36 1569.85 233.11 1567.95 233.11C1565.05 233.11 1562.5 233.78 1560.3 235.14C1558.1 236.49 1556.35 238.29 1555.04 240.54C1553.74 242.79 1553.09 245.42 1553.09 248.42V294.62H1528.49L1528.5 294.6Z" fill="#DBE801"/>
<path d="M1192.53 396.98C1186.76 396.98 1181.86 395.92 1177.85 393.8C1173.83 391.68 1170.76 388.47 1168.64 384.15C1166.52 379.83 1165.46 374.35 1165.46 367.69C1165.46 357.85 1167.85 350.51 1172.65 345.67C1177.44 340.83 1184.09 338.41 1192.61 338.41C1197.45 338.41 1201.74 339.19 1205.49 340.76C1209.23 342.33 1212.16 344.69 1214.27 347.85C1216.39 351.01 1217.45 354.99 1217.45 359.77H1209.53C1209.53 356.47 1208.83 353.75 1207.43 351.6C1206.03 349.45 1204.06 347.85 1201.52 346.77C1198.99 345.69 1196.02 345.16 1192.61 345.16C1188.65 345.16 1185.24 345.93 1182.38 347.47C1179.52 349.01 1177.35 351.39 1175.86 354.6C1174.38 357.82 1173.63 361.96 1173.63 367.01V368.74C1173.63 373.74 1174.37 377.83 1175.86 380.99C1177.35 384.15 1179.5 386.48 1182.33 387.96C1185.16 389.44 1188.59 390.19 1192.6 390.19C1196.12 390.19 1199.16 389.67 1201.72 388.62C1204.29 387.58 1206.27 385.97 1207.67 383.79C1209.07 381.62 1209.77 378.88 1209.77 375.58H1217.44C1217.44 380.48 1216.35 384.49 1214.18 387.62C1212.01 390.75 1209.05 393.09 1205.31 394.63C1201.56 396.17 1197.3 396.94 1192.51 396.94L1192.53 396.98Z" fill="white"/>
<path d="M1253.83 396.98C1247.95 396.98 1242.9 395.91 1238.7 393.76C1234.48 391.62 1231.24 388.37 1228.96 384.03C1226.68 379.69 1225.54 374.24 1225.54 367.7C1225.54 361.16 1226.68 355.64 1228.96 351.33C1231.24 347.01 1234.49 343.78 1238.7 341.64C1242.91 339.5 1247.95 338.42 1253.83 338.42C1259.71 338.42 1264.76 339.49 1268.98 341.64C1273.19 343.78 1276.43 347.02 1278.71 351.33C1280.99 355.65 1282.13 361.1 1282.13 367.7C1282.13 374.3 1280.99 379.69 1278.71 384.03C1276.43 388.37 1273.18 391.62 1268.98 393.76C1264.76 395.91 1259.72 396.98 1253.83 396.98ZM1253.83 390.21C1256.91 390.21 1259.7 389.8 1262.2 388.97C1264.7 388.14 1266.82 386.84 1268.56 385.05C1270.29 383.26 1271.63 381.01 1272.56 378.29C1273.49 375.57 1273.96 372.34 1273.96 368.6V366.87C1273.96 363.08 1273.49 359.82 1272.56 357.1C1271.62 354.38 1270.29 352.12 1268.56 350.34C1266.82 348.55 1264.7 347.25 1262.2 346.42C1259.7 345.6 1256.91 345.18 1253.83 345.18C1250.75 345.18 1247.89 345.59 1245.42 346.42C1242.95 347.25 1240.83 348.55 1239.07 350.34C1237.31 352.13 1235.98 354.38 1235.06 357.1C1234.15 359.82 1233.7 363.08 1233.7 366.87V368.6C1233.7 372.34 1234.15 375.57 1235.06 378.29C1235.98 381.01 1237.31 383.27 1239.07 385.05C1240.83 386.84 1242.95 388.14 1245.42 388.97C1247.89 389.79 1250.7 390.21 1253.83 390.21Z" fill="white"/>
<path d="M1285.85 395.99L1308.21 339.41H1318.52L1340.97 395.99H1332.47L1326.93 381.97H1299.37L1293.93 395.99H1285.85ZM1301.94 375.28H1324.29L1317.44 357.55C1317.27 357.05 1317.03 356.37 1316.7 355.49C1316.37 354.61 1316.01 353.63 1315.63 352.56C1315.24 351.49 1314.86 350.39 1314.47 349.26C1314.09 348.13 1313.73 347.1 1313.4 346.17H1312.91C1312.53 347.27 1312.09 348.54 1311.59 349.96C1311.1 351.39 1310.6 352.78 1310.11 354.13C1309.62 355.48 1309.2 356.62 1308.87 357.55L1301.94 375.28Z" fill="white"/>
<path d="M1348.64 395.99V339.41H1356.48V389.15H1384.62V396H1348.65L1348.64 395.99Z" fill="white"/>
<path d="M1392.86 395.99V339.41H1400.71V395.99H1392.86Z" fill="white"/>
<path d="M1428.76 395.99V346.25H1409.37V339.4H1456.15V346.25H1436.6V395.99H1428.76Z" fill="white"/>
<path d="M1464.9 395.99V339.41H1472.74V395.99H1464.9Z" fill="white"/>
<path d="M1512.34 396.98C1506.46 396.98 1501.41 395.91 1497.21 393.76C1493 391.62 1489.75 388.37 1487.47 384.03C1485.19 379.69 1484.05 374.24 1484.05 367.7C1484.05 361.16 1485.19 355.64 1487.47 351.33C1489.75 347.01 1493.01 343.78 1497.21 341.64C1501.42 339.5 1506.46 338.42 1512.34 338.42C1518.22 338.42 1523.27 339.49 1527.49 341.64C1531.7 343.78 1534.94 347.02 1537.22 351.33C1539.5 355.65 1540.64 361.1 1540.64 367.7C1540.64 374.3 1539.5 379.69 1537.22 384.03C1534.94 388.37 1531.69 391.62 1527.49 393.76C1523.27 395.91 1518.23 396.98 1512.34 396.98ZM1512.34 390.21C1515.42 390.21 1518.21 389.8 1520.71 388.97C1523.21 388.14 1525.34 386.84 1527.07 385.05C1528.8 383.26 1530.14 381.01 1531.07 378.29C1532 375.57 1532.47 372.34 1532.47 368.6V366.87C1532.47 363.08 1532 359.82 1531.07 357.1C1530.13 354.38 1528.8 352.12 1527.07 350.34C1525.34 348.55 1523.21 347.25 1520.71 346.42C1518.21 345.6 1515.42 345.18 1512.34 345.18C1509.26 345.18 1506.4 345.59 1503.93 346.42C1501.46 347.25 1499.34 348.55 1497.58 350.34C1495.82 352.13 1494.49 354.38 1493.58 357.1C1492.67 359.82 1492.22 363.08 1492.22 366.87V368.6C1492.22 372.34 1492.67 375.57 1493.58 378.29C1494.49 381.01 1495.82 383.27 1497.58 385.05C1499.34 386.84 1501.46 388.14 1503.93 388.97C1506.4 389.79 1509.21 390.21 1512.34 390.21Z" fill="white"/>
<path d="M1551.94 395.99V339.41H1559.54L1587.01 376.69C1587.28 377.02 1587.64 377.52 1588.08 378.18C1588.53 378.84 1588.97 379.49 1589.41 380.12C1589.85 380.75 1590.21 381.32 1590.48 381.81H1590.81V339.41H1598.48V395.99H1591.3L1563.49 358.05C1563.1 357.45 1562.54 356.59 1561.8 355.49C1561.06 354.39 1560.44 353.51 1559.94 352.85H1559.53V395.99H1551.93H1551.94Z" fill="white"/>
<g opacity="0.7">
<path d="M1130.07 366.94H572.138V372.94H1130.07V366.94Z" fill="white"/>
</g>
<path d="M87.7973 221.08C87.7973 221.08 87.7974 221.08 87.7874 221.08C87.7974 221.08 87.8074 221.08 87.8174 221.08C87.8174 221.08 87.8073 221.07 87.7973 221.07V221.08Z" fill="white"/>
<path d="M222.039 96.15C223.98 94.99 225.11 94.32 225.26 94.23C225.27 94.23 225.28 94.22 225.29 94.21C225.28 94.21 225.27 94.22 225.26 94.23C225.11 94.32 223.98 95 222.039 96.15Z" fill="white"/>
<path d="M83.195 172.51C82.215 173.05 81.285 173.57 80.405 174.06C81.285 173.57 82.215 173.06 83.195 172.51Z" fill="white"/>
<path d="M86.2759 170.8C85.2059 171.39 84.1759 171.96 83.1959 172.51C84.1759 171.97 85.2059 171.4 86.2759 170.8Z" fill="white"/>
<path d="M226.791 121.72C226.791 121.72 226.771 121.73 226.761 121.74C226.421 121.95 221.829 124.62 214.557 128.84C221.819 124.62 226.421 121.95 226.761 121.74C226.771 121.74 226.781 121.73 226.791 121.72Z" fill="white"/>
<path d="M89.6279 168.94C88.4675 169.58 87.3472 170.2 86.2769 170.8C87.3472 170.21 88.4675 169.59 89.6279 168.94Z" fill="white"/>
<path d="M41.5829 192.5C41.5829 192.5 41.5829 192.5 41.5729 192.51C41.5829 192.51 41.5929 192.51 41.6129 192.51C41.6129 192.51 41.6029 192.49 41.5929 192.49L41.5829 192.5Z" fill="white"/>
<path d="M92.0887 193.02L98.1806 196.28L92.0887 193.02Z" fill="white"/>
<path d="M212.036 130.3C212.906 129.79 213.746 129.31 214.556 128.84C213.746 129.31 212.906 129.8 212.036 130.3Z" fill="white"/>
<path d="M181.887 120.08C179.756 121.35 177.595 122.64 175.395 123.95C177.595 122.64 179.766 121.35 181.887 120.08Z" fill="white"/>
<path d="M208.485 76.55C207.185 77.35 205.824 78.18 204.424 79.04C205.834 78.18 207.185 77.35 208.485 76.55Z" fill="white"/>
<path d="M214.786 72.6899C213.876 73.2499 212.916 73.8399 211.916 74.4499C212.916 73.8399 213.866 73.2499 214.786 72.6899Z" fill="white"/>
<path d="M60.6384 167.16C60.0984 167.49 59.5884 167.8 59.1184 168.09C59.5884 167.8 60.0884 167.49 60.6384 167.16Z" fill="white"/>
<path d="M63.9493 209.48C63.9693 215.26 61.7493 391.28 61.7493 391.28C61.7493 391.28 63.9793 215.26 63.9493 209.48Z" fill="white"/>
<path d="M64.28 205.39C64.28 205.39 64.28 205.39 64.27 205.39C64.28 205.39 64.29 205.39 64.3 205.39C64.3 205.39 64.29 205.38 64.28 205.38V205.39Z" fill="white"/>
<path d="M163.651 466.8C159.96 464.37 156.279 461.94 152.628 459.53C156.279 461.93 159.96 464.36 163.651 466.8Z" fill="white"/>
<path d="M40.0021 435.86C40.0921 435.91 40.2221 435.99 40.3821 436.09C40.2121 435.99 40.0921 435.91 40.0021 435.86Z" fill="white"/>
<path d="M174.694 474.09C172.254 472.48 169.793 470.86 167.332 469.23C169.793 470.85 172.244 472.47 174.694 474.09Z" fill="white"/>
<path d="M85.4966 415.42C85.4966 415.42 85.5367 415.44 85.5567 415.46C85.5367 415.45 85.5166 415.44 85.4966 415.42Z" fill="white"/>
<path d="M70.9921 454.78C69.4716 453.85 67.9912 452.95 66.5507 452.07C67.9912 452.95 69.4616 453.85 70.9921 454.78Z" fill="white"/>
<path d="M176.125 519C173.684 517.51 171.203 515.99 168.703 514.47C171.203 516 173.674 517.51 176.125 519Z" fill="white"/>
<path d="M145.625 415.13C143.945 414.07 142.324 413.05 140.754 412.05C142.324 413.04 143.955 414.07 145.625 415.13Z" fill="white"/>
<path d="M117.667 397.54C117.667 397.54 117.677 397.54 117.687 397.55C117.687 397.55 117.677 397.55 117.667 397.54Z" fill="white"/>
<path d="M252.439 0L0 145.7V437.1L252.439 582.8L504.877 437.1V145.7L252.439 0ZM440.567 124.75C440.697 125.01 440.827 125.27 440.947 125.51C445.919 136.26 449.19 147.83 451.501 159.47C454.001 173.02 454.302 186.95 453.741 200.76C453.731 201.04 453.931 201.29 454.222 201.34C454.532 201.39 454.812 201.18 454.862 200.87C457.803 179.9 458.223 158.39 453.931 137.61C453.471 135.63 453.031 133.64 452.551 131.66L473.378 143.68C473.818 162.79 471.757 182.07 468.846 200.93C466.345 215.51 462.134 230.15 457.823 244.42C450.82 268.36 441.378 292.02 431.725 314.99C427.803 324.3 424.642 332.86 419.541 342.13C418.19 344.3 414.419 351.65 413.169 353.85C412.339 355.29 411.498 355.63 412.529 353.01C416.78 342.21 420.711 330.97 424.242 319.91C426.793 311.56 428.714 302.92 431.104 294.64C432.775 289.03 434.535 283.4 435.836 277.68C438.347 266.31 440.647 254.48 442.218 243C443.898 228.3 444.829 213.71 444.679 198.91C444.188 186.91 441.788 175.29 439.377 163.63C437.636 154.77 433.805 146.31 430.474 138.13C426.773 129.34 422.962 120.48 418.52 112.01L440.567 124.74V124.75ZM259.111 472.64C258.931 470.79 259.441 470.64 261.291 470.07C263.142 469.5 279.697 465.93 294.682 462.94C309.667 459.94 331.203 454.38 367.164 442.61C403.116 430.84 441.788 411.74 444.348 410.31C446.919 408.88 447.629 409.45 449.2 410.31C450.77 411.17 463.184 418.3 467.036 420.75C470.887 423.2 467.896 424.29 467.896 424.29C467.896 424.29 466.185 425.86 457.623 428.14C449.06 430.42 374.017 456.52 340.776 463.8C307.536 471.07 268.014 475.78 261.311 475.78C258.311 475.78 259.311 474.5 259.131 472.64H259.111ZM434.065 406.17C431.354 407.17 388.551 426.99 366.294 434.55C344.037 442.11 273.525 459.83 264.422 460.94C259.711 461.51 259.861 459.51 264.422 458.8C268.984 458.09 288.53 451.67 300.944 447.39C313.358 443.11 339.756 433.13 343.747 431.13C347.738 429.13 354.16 425.57 363.293 421.86C372.426 418.15 413.659 395.05 416.51 393.33C419.361 391.62 419.361 392.47 421.361 393.33C423.362 394.19 433.635 401.46 435.486 403.03C437.336 404.6 436.766 405.17 434.055 406.17H434.065ZM390.642 378.91C395.513 375.58 393.973 376.69 396.193 378.02C396.193 378.02 402.846 381.79 407.507 384.89C412.168 387.99 406.767 388.33 404.106 389.88C401.445 391.43 394.643 395.53 384.66 401.13C374.677 406.72 337.425 425.69 327.222 429.45C317.019 433.22 289.18 444.16 279.547 447.19C271.785 449.63 279.547 445.19 284.649 442.61C289.75 440.02 291.521 439.21 301.724 433.89C311.927 428.57 329.443 417.71 338.756 411.96C348.068 406.21 385.77 382.24 390.642 378.91ZM387.371 180.52C384.45 173.32 382.189 169.82 380.078 165.94C377.968 162.06 372.576 152.67 368.915 145.9C365.254 139.14 367.915 142.13 370.355 145.35C372.796 148.56 373.907 150.85 376.907 155.39C379.898 159.93 383.189 164.75 385.96 172.28C388.731 179.82 394.183 193.92 395.313 199.54C395.643 201.19 395.203 203.1 394.203 198.55C393.203 194.01 389.691 186.24 387.371 180.51V180.52ZM398.354 209.64C398.354 209.64 399.495 211.01 399.515 211.05C400.465 214.07 400.985 216.48 401.675 218.86C401.635 220.49 402.155 222.97 402.175 224.6C402.215 226.12 402.786 226.99 403.236 228.44C407.167 239.64 409.128 250.91 410.268 262.74C410.838 268.58 410.388 273.34 410.078 279.23C409.428 291.03 407.957 303.96 405.006 315.44C404.026 319.11 402.165 328.3 401.015 331.69C400.525 333.13 399.925 332.26 399.955 331.52C399.955 331.52 400.925 314.9 401.265 305.84C401.595 296.78 398.354 209.65 398.354 209.65V209.64ZM376.047 87.51C377.228 88.46 395.003 98.49 396.874 99.53C398.744 100.57 406.997 113.02 410.998 119.74C415.249 127.09 419.231 134.64 422.812 142.35C425.643 148.81 427.713 155.28 429.684 161.86C433.285 176.91 435.636 192.17 435.206 207.69C435.016 224.76 433.965 242.11 430.684 258.89C428.834 270.3 426.373 281.36 422.992 292.36C419.831 303.74 417.68 315.07 413.649 325.49C411.218 331.82 408.697 338.43 406.057 344.93C407.007 341.72 407.777 338.51 408.637 335.13C409.888 330.08 411.458 322.22 412.469 317.11C417.04 292.96 420.741 268.42 418.11 243.76C417.58 239.08 416.74 234.25 415.419 229.68C414.919 227.83 414.389 226.34 414.099 224.8C413.799 220.7 414.499 213.47 414.659 209.25C415.419 200.01 415.039 190.44 413.729 181.26C412.439 171.41 411.078 161.56 409.408 151.79C405.126 134.34 395.723 118.46 386.45 103.38C382.599 97.46 372.816 86.81 372.956 86.03C373.096 85.25 374.857 86.54 376.037 87.49L376.047 87.51ZM358.182 80.11C365.224 87.66 365.964 89.44 369.385 94.21C379.568 108.58 387.951 123.55 394.613 139.73C396.714 145.14 397.854 150.77 399.244 155.77C401.285 163.09 401.945 167.12 402.615 173.06C403.186 178.53 405.826 201.99 403.946 199.33C403.006 196.17 402.225 187.04 401.945 185.55C400.975 180.27 396.574 169.68 392.492 160.8C390.562 156.59 388.561 152.24 386.751 147.96C381.589 135.73 372.726 116.8 366.844 106.26C362.203 97.97 351.67 80.38 347.158 75.34C345.978 74.02 344.287 71.18 342.487 68.13C342.487 68.13 351.139 72.55 358.172 80.1L358.182 80.11ZM324.851 57.96C328.612 62.35 331.873 67.87 334.544 72.39C336.835 76.27 338.636 79.33 340.456 81.36C343.677 84.96 353.07 100.06 358.992 110.66C364.133 119.85 375.477 141.17 381.259 154.86C381.689 155.87 381.259 156.44 379.768 154.51C375.407 146.7 371.486 140.08 369.985 138.29C369.355 137.54 367.585 135.31 365.354 132.49C356.841 121.73 340.976 101.72 334.414 95.62C330.503 91.99 324.741 85.43 319.169 79.09C313.408 72.54 307.966 66.34 304.385 63.14C297.823 57.28 280.837 38.75 280.667 38.56L280.397 38.29C275.246 33.55 267.833 26.7 263.272 22.43L324.851 57.97V57.96ZM259.211 30.94C264.693 36.05 271.885 42.68 274.165 44.77C275.896 46.66 291.741 63.9 298.393 69.84C301.574 72.68 307.086 78.95 312.417 85.02C318.139 91.53 324.061 98.27 328.302 102.21C334.364 107.83 350.529 128.26 358.312 138.07C360.772 141.17 363.273 144.47 363.993 145.32C365.434 147.04 370.986 156.99 376.917 168.01C370.876 161.81 364.784 155.61 357.902 150.26C357.131 149.72 356.361 149.15 355.471 148.67L354.761 148.27L354.551 148.12C354.4 148.02 354.17 147.89 354.03 147.77L353.29 147.21C347.698 142.67 342.557 137.41 337.345 132.23C329.963 124.83 319.76 113.91 312.437 106.23C309.556 103.24 304.185 97.62 301.254 94.81C293.381 86.64 283.478 74.93 275.796 66.25C270.514 61.5 264.562 56.35 258.941 51.59L259.231 30.93L259.211 30.94ZM258.731 65.15C261.812 68.21 264.973 71.18 268.154 74.17C269.664 76.21 276.276 83.49 279.617 87.34C284.679 92.96 289.67 98.83 295.212 104.18C306.295 115.19 318.609 126.39 329.763 137.28C335.795 143.03 342.347 150.95 349.279 155.89C350.289 156.51 366.534 171.39 370.045 175.11C373.556 178.83 377.258 185.91 382.549 195.02C382.219 197.57 372.916 181.48 372.056 180.36C367.054 174.4 359.272 169.62 352.61 165.87C343.567 160.39 338.035 154.56 328.362 149.21C325.261 147.5 321.96 145.91 319.009 143.92C313.128 140.11 307.676 135.5 302.114 130.76C300.784 129.62 297.033 126.5 295.782 125.46C292.511 122.64 285.419 116.6 282.418 113.33C273.445 103.56 269.664 99.49 263.462 92.44C262.042 90.83 260.161 89.62 258.401 88.31L258.731 65.16V65.15ZM258.24 100.24C261.331 103.49 264.342 108.5 267.363 111.7C274.946 119.92 282.608 128.38 291.721 135.01C300.554 141.69 309.456 148.78 319.48 154.05C331.343 159.27 339.796 168.43 351.119 175.3C354.1 177.07 357.361 178.94 360.132 180.98C362.763 182.85 364.964 184.91 366.974 187.19L257.91 124.24L258.25 100.22L258.24 100.24ZM229.872 63.44C230.082 64.18 229.782 64.89 227.671 66.19C225.58 67.47 57.4479 170.51 55.7474 171.55C55.5573 171.67 55.3372 171.73 55.1172 171.73C54.9271 171.73 54.7271 171.68 54.547 171.59L47.5648 167.86C47.1747 167.65 46.9346 167.26 46.9346 166.82C46.9346 166.38 47.1647 165.98 47.5348 165.76C49.2453 164.78 218.248 68.16 223.86 64.8C227.651 62.52 228.251 62.52 228.611 62.52C229.201 62.52 229.702 62.89 229.862 63.44H229.872ZM62.7496 209.48C62.7295 205.22 63.0496 204.9 63.3898 204.56C63.6098 204.33 63.9599 204.19 64.28 204.19C65.7505 204.19 65.7805 206.18 65.8005 207.25C65.8305 209.38 68.8314 385.9 68.8615 387.68C68.8615 388.11 68.6514 388.51 68.2813 388.73L62.3694 392.3C62.1794 392.42 61.9593 392.47 61.7492 392.47C61.5392 392.47 61.3391 392.42 61.1491 392.31C60.7689 392.09 60.5389 391.69 60.5489 391.25C60.5689 389.49 62.7796 215.17 62.7496 209.47V209.48ZM62.5395 422.57C63.0797 422.89 237.454 527.49 244.876 531.95C245.236 532.17 245.467 532.56 245.456 532.99L245.396 540.9C245.396 541.34 245.156 541.74 244.766 541.95C244.586 542.05 244.386 542.1 244.196 542.1C243.966 542.1 243.746 542.04 243.546 541.91C241.775 540.78 66.4907 428.68 63.0697 426.59C58.7683 423.97 58.4782 423.41 58.7383 422.48C58.8884 421.93 59.3985 421.56 59.9987 421.56C60.7189 421.56 61.8993 422.2 62.5395 422.58V422.57ZM76.6739 183.95C76.4838 183.95 76.2838 183.9 76.1037 183.81L70.0218 180.56C69.6317 180.35 69.3916 179.95 69.3916 179.51C69.3916 179.07 69.6217 178.66 70.0118 178.45C71.4823 177.63 217.538 96.7 222.419 93.78C225.76 91.77 226.291 91.77 226.641 91.77C227.221 91.77 227.721 92.14 227.881 92.68C228.081 93.39 227.821 94.07 225.9 95.25C224.07 96.37 83.296 180.21 77.3041 183.78C77.114 183.89 76.904 183.95 76.6939 183.95H76.6739ZM86.2769 225.17C86.2569 220.91 86.577 220.59 86.9171 220.25C87.1372 220.02 87.4873 219.88 87.8074 219.88C89.2778 219.88 89.3078 221.87 89.3278 222.94C89.3578 225.07 91.9687 373.75 91.9887 375.25C91.9887 375.68 91.7786 376.08 91.4085 376.3L85.4966 379.87C85.3066 379.99 85.0865 380.04 84.8764 380.04C84.6664 380.04 84.4663 379.99 84.2763 379.88C83.8961 379.66 83.6661 379.26 83.6761 378.82C83.7061 377.34 86.2969 230.87 86.2769 225.17ZM91.5285 194.08C91.1384 193.87 90.8983 193.46 90.8983 193.02C90.8983 192.58 91.1484 192.17 91.5385 191.96C92.8089 191.28 219.048 124.2 223.92 121.28C227.261 119.27 227.791 119.27 228.141 119.27C228.721 119.27 229.221 119.64 229.381 120.18C229.582 120.89 229.321 121.57 227.401 122.75C225.57 123.88 103.972 194.3 98.7908 197.3C98.6007 197.41 98.4007 197.46 98.1906 197.46C98.0005 197.46 97.8005 197.41 97.6204 197.32L91.5385 194.07L91.5285 194.08ZM40.0025 197.19C39.9825 192.38 40.3326 192.02 40.6827 191.68C40.9228 191.44 41.2429 191.3 41.573 191.3C42.8334 191.3 43.1034 192.63 43.1434 194.64C43.1835 197.08 48.9152 396.29 48.9753 398.3C48.9853 398.73 48.7652 399.14 48.3951 399.36L41.623 403.45C41.4329 403.57 41.2128 403.62 41.0028 403.62C40.8027 403.62 40.5927 403.57 40.4126 403.46C40.0325 403.25 39.8024 402.85 39.8024 402.41C39.8024 400.42 40.0325 203.72 40.0025 197.18V197.19ZM24.5777 412.98L17.0453 417.53C16.8553 417.65 16.6352 417.7 16.4251 417.7C16.2151 417.7 16.015 417.65 15.8249 417.54C15.4448 417.32 15.2147 416.92 15.2247 416.48C15.2448 414.25 17.7055 193.27 17.6755 186C17.6555 180.7 18.0256 180.33 18.3857 179.96C18.6258 179.72 18.9459 179.58 19.286 179.58C20.5764 179.58 20.8565 181.01 20.8965 183.16C20.9365 185.88 25.1078 409.66 25.1578 411.92C25.1578 412.35 24.9478 412.75 24.5777 412.97V412.98ZM31.5098 158.78C31.3198 158.78 31.1197 158.73 30.9396 158.64L23.1772 154.49C22.7871 154.28 22.547 153.88 22.547 153.44C22.547 153 22.7771 152.6 23.1572 152.38C25.0878 151.3 216.367 44.5 222.589 40.76C226.781 38.25 227.441 38.25 227.801 38.25C228.401 38.25 228.901 38.62 229.061 39.17C229.241 39.79 229.201 40.53 226.681 42.08C224.36 43.51 39.9725 153.91 32.12 158.6C31.93 158.71 31.7199 158.77 31.4998 158.77L31.5098 158.78ZM245.396 560.58C245.396 561.01 245.156 561.41 244.776 561.62C244.596 561.72 244.396 561.77 244.196 561.77C243.976 561.77 243.766 561.71 243.566 561.59C241.585 560.38 45.5942 440.66 39.3723 436.88C34.6708 434.02 34.3407 433.43 34.6108 432.47C34.7708 431.92 35.271 431.54 35.8812 431.54C36.6514 431.54 37.9418 432.24 38.642 432.65C40.2292 433.59 95.2797 465.113 203.794 527.22L244.856 550.72C245.236 550.94 245.467 551.34 245.456 551.77L245.396 560.57V560.58ZM246.617 520.78C246.617 521.22 246.367 521.62 245.977 521.83C245.797 521.92 245.607 521.97 245.416 521.97C245.186 521.97 244.956 521.9 244.756 521.77C243.206 520.75 89.798 419.44 84.9365 416.48C81.2653 414.25 80.8252 413.68 81.0853 412.73C81.2353 412.18 81.7355 411.81 82.3257 411.81C82.9559 411.81 83.9262 412.3 84.6264 412.72C86.4769 413.82 239.585 508.8 246.107 512.85C246.467 513.07 246.677 513.46 246.677 513.88L246.627 520.78H246.617ZM247.617 499.49C247.617 499.93 247.377 500.33 246.987 500.54C246.807 500.64 246.617 500.68 246.417 500.68C246.187 500.68 245.967 500.62 245.767 500.49C244.356 499.58 104.923 409.24 100.061 406.28C96.39 404.05 95.9499 403.48 96.21 402.53C96.36 401.98 96.8602 401.61 97.4504 401.61C98.0806 401.61 99.0509 402.1 99.7511 402.52C101.592 403.61 241.145 487.96 247.087 491.55C247.447 491.77 247.667 492.16 247.667 492.59L247.617 499.49ZM247.617 478.78C247.617 479.22 247.377 479.62 246.997 479.82C246.817 479.92 246.617 479.97 246.417 479.97C246.197 479.97 245.967 479.91 245.777 479.78C244.536 479 121.938 401.53 117.066 398.57C113.395 396.34 112.955 395.77 113.215 394.82C113.365 394.27 113.865 393.9 114.456 393.9C115.086 393.9 116.056 394.39 116.756 394.81C118.587 395.9 245.787 470.09 247.067 470.84C247.437 471.06 247.667 471.46 247.667 471.89L247.617 478.79V478.78ZM252.439 445.53L235.093 435.52L118.927 368.47V214.34L252.449 137.28L360.822 199.83L385.97 214.34V356.05V368.47L376.417 373.98L252.449 445.53H252.439ZM278.407 552.23C276.126 553.23 264.853 559.93 262.142 561.36C259.431 562.79 258.29 562.22 258.29 560.58V552.09C258.29 552.09 270.564 551.23 276.126 550.95C281.688 550.66 280.687 551.24 278.407 552.23ZM321.78 527.27C319.64 527.98 305.655 536.54 300.804 539.54C295.952 542.54 296.382 540.68 291.241 541.54C286.109 542.4 258.28 542.25 258.28 542.25V530.13C258.28 530.13 279.677 529.7 290.03 529.99C300.374 530.28 323.911 526.57 321.78 527.28V527.27ZM390.272 486.9C387.131 489.18 377.368 494.63 372.726 497.45C367.164 500.83 364.594 502.16 355.031 506.86C345.468 511.57 325.071 516.13 307.806 518.13C290.541 520.13 264.723 520.98 260.861 520.76C257.01 520.54 258.29 519.7 258.29 518.42V508.15C258.29 506.58 258.861 506.15 261.572 506.3C264.282 506.45 292.671 502.73 309.937 500.74C327.202 498.74 365.314 492.57 370.736 491.15C376.157 489.73 393.403 484.62 390.262 486.91L390.272 486.9ZM481.72 432.75C479.579 434.08 466.735 441.12 460.894 444.26C455.042 447.4 443.628 457.24 437.206 460.66C430.784 464.08 416.66 470.22 401.825 474.21C386.991 478.2 346.898 486.76 329.913 489.04C312.938 491.32 266.843 497.05 261.572 497.46C259.721 497.6 259.001 497.17 259.121 496.03C259.231 494.89 259.291 488.33 259.151 486.9C259.011 485.47 259.291 485.05 262.432 485.19C265.573 485.33 278.267 483.19 298.673 480.2C319.079 477.2 354.46 470.79 369.585 466.89C384.71 463 427.943 448.53 438.357 444.54C448.77 440.55 471.457 430.85 474.738 428.14C478.019 425.43 476.879 426.86 478.589 427.28C480.3 427.71 480.16 428.14 481.73 429.13C483.301 430.13 483.871 431.41 481.73 432.74L481.72 432.75ZM490.873 416.76C487.972 415.21 486.802 414.4 483.621 412.72C483.181 412.47 482.48 411.37 483.121 410.51C484.781 408.27 488.322 404.03 490.873 401.13V416.76ZM490.873 388.48C486.021 394.94 479.009 402.07 474.218 406.7C473.898 407.01 473.057 407.47 472.587 407.21C466.385 403.4 462.674 401.5 458.953 399.8C458.663 399.51 458.563 398.87 458.873 398.58C467.326 390.93 474.318 382.98 481.28 373.73C484.651 368.98 487.872 364.16 490.863 359.22V388.47L490.873 388.48ZM490.873 340.72C485.591 350.06 479.439 359.11 473.117 367.61C465.695 377.29 451.881 392.72 451.501 393.15C451.121 393.58 449.95 394.6 448.65 393.72C447.339 392.85 441.348 389.53 440.327 388.72C439.307 387.91 439.107 387.08 440.497 385.77C441.898 384.46 443.728 382.71 446.839 379.58C451.761 374.34 457.443 368.93 462.194 363.48C473.408 349.71 481.59 333.92 489.963 318.44C490.273 317.85 490.573 317.26 490.883 316.67V340.72H490.873ZM490.873 297.97C485.771 307.72 480.34 317.34 474.488 326.66C468.716 335.86 462.494 344.85 455.692 353.26C451.941 357.97 447.599 361.96 443.478 366.46C438.477 372.1 436.396 374.32 432.345 380.7C432.345 380.7 432.035 381.53 430.944 380.89C429.844 380.24 424.772 377.43 424.222 376.93C423.672 376.44 424.892 374.6 424.892 374.6C430.014 366.91 435.106 363.91 439.967 355.64C444.989 347.34 451.521 340.07 456.592 331.54C464.155 317.43 472.077 303.68 478.429 288.86C478.809 287.93 479.189 286.79 479.529 285.82C483.241 274.7 487.352 263.65 490.873 252.4V297.96V297.97ZM490.873 221.05C488.892 227.76 486.632 234.4 484.661 241.17C480.74 255.5 474.808 269.34 470.056 283.48C464.855 296.53 457.353 308.98 450.73 321.48C446.389 330.11 440.237 337.52 434.815 345.67C432.615 348.74 431.214 352.26 428.754 355.46C424.652 360.98 418.45 368.77 417.73 370.11C417 371.45 415.75 371.09 416.68 369.53C417.62 367.96 421.671 359.43 424.132 353.62C426.153 349.02 427.893 344.27 429.894 339.68C433.305 332.96 436.756 325.3 440.017 318.48C451.401 295.65 459.393 271.55 466.635 247.14C471.097 232.38 475.148 217.73 477.639 202.36C479.129 192.15 480.31 182.12 481.01 171.84C481.53 163.99 481.71 156.24 481.55 148.42L490.863 153.8V221.06L490.873 221.05Z" fill="white"/>
<path d="M115.616 414.84C111.365 412.1 107.854 409.84 105.293 408.19C107.854 409.83 111.365 412.09 115.616 414.84Z" fill="white"/>
<path d="M159.17 81.1399C156.279 82.8699 153.358 84.6199 150.407 86.3899C153.358 84.6199 156.289 82.8699 159.17 81.1399Z" fill="white"/>
<path d="M227.811 39.4499C227.811 39.4499 227.781 39.4499 227.771 39.4499C227.801 39.4499 227.811 39.4499 227.831 39.4499C227.821 39.4499 227.821 39.4399 227.801 39.4399L227.811 39.4499Z" fill="white"/>
<path d="M41.0728 339.23C41.0728 334.82 41.0828 330.3 41.0928 325.7C41.0928 330.3 41.0828 334.82 41.0728 339.23Z" fill="white"/>
<path d="M23.7474 153.43L31.5098 157.58L23.7474 153.43Z" fill="white"/>
<path d="M19.296 180.79C19.296 180.79 19.276 180.79 19.266 180.8C19.286 180.8 19.296 180.8 19.316 180.8L19.296 180.78V180.79Z" fill="white"/>
<path d="M225.12 41.6301C225.66 41.3101 225.97 41.12 226.05 41.07C226.06 41.07 226.07 41.06 226.08 41.05C226.08 41.05 226.06 41.06 226.05 41.07C225.97 41.12 225.65 41.3101 225.12 41.6301Z" fill="white"/>
</g>
<defs>
<clipPath id="clip0_9_6249">
<rect width="1604.57" height="582.8" fill="white"/>
</clipPath>
</defs>
</svg>
