<?xml version="1.0" encoding="UTF-8"?>
<svg xmlns="http://www.w3.org/2000/svg" viewBox="0 0 1200 900" font-family="Arial, Helvetica, sans-serif">
  <defs>
    <marker id="arrSmall" viewBox="0 0 10 10" markerWidth="22" markerHeight="22" refX="8" refY="5" orient="auto" markerUnits="userSpaceOnUse">
      <path d="M0,0 L10,5 L0,10 Z" fill="#112717"/>
    </marker>
    <marker id="arrMedium" viewBox="0 0 10 10" markerWidth="28" markerHeight="28" refX="8" refY="5" orient="auto" markerUnits="userSpaceOnUse">
      <path d="M0,0 L10,5 L0,10 Z" fill="#112717"/>
    </marker>
    <marker id="arrCream" viewBox="0 0 10 10" markerWidth="28" markerHeight="28" refX="8" refY="5" orient="auto" markerUnits="userSpaceOnUse">
      <path d="M0,0 L10,5 L0,10 Z" fill="#FFF7E4"/>
    </marker>
  </defs>

  <!-- Background bands -->
  <rect x="0" y="0" width="1200" height="585" fill="#DCE7E6"/>
  <rect x="0" y="585" width="1200" height="180" fill="#8A6F4F"/>
  <rect x="0" y="765" width="1200" height="135" fill="#2A2D2E"/>

  <!-- Band labels -->
  <text x="600" y="690" text-anchor="middle" font-size="28" font-weight="700" fill="#FFF7E4">Soil</text>
  <text x="600" y="850" text-anchor="middle" font-size="28" font-weight="700" fill="#FFF7E4">Fossil oil</text>

  <!-- CO2 cloud 1 (above factory) -->
  <g>
    <path d="M 545 205 Q 525 205 525 185 Q 525 163 555 160 Q 560 135 590 140 Q 605 120 635 133 Q 665 125 670 153 Q 695 155 690 180 Q 695 210 665 210 Z"
          fill="#FFF7E4" stroke="#112717" stroke-width="3" stroke-linejoin="round"/>
    <text x="605" y="193" text-anchor="middle" font-size="32" font-weight="700" fill="#112717">CO<tspan font-size="22" dy="8">2</tspan></text>
  </g>

  <!-- CO2 cloud 2 (above products) -->
  <g>
    <path d="M 905 135 Q 885 135 885 115 Q 885 93 915 90 Q 920 65 950 70 Q 965 50 995 63 Q 1025 55 1030 83 Q 1055 85 1050 110 Q 1055 140 1025 140 Z"
          fill="#FFF7E4" stroke="#112717" stroke-width="3" stroke-linejoin="round"/>
    <text x="965" y="123" text-anchor="middle" font-size="32" font-weight="700" fill="#112717">CO<tspan font-size="22" dy="8">2</tspan></text>
  </g>

  <!-- Upward arrows to clouds -->
  <line x1="600" y1="420" x2="600" y2="245" stroke="#112717" stroke-width="10" marker-end="url(#arrMedium)"/>
  <line x1="960" y1="480" x2="960" y2="175" stroke="#112717" stroke-width="10" marker-end="url(#arrMedium)"/>

  <!-- Oil pumpjack -->
  <g>
    <text x="240" y="395" text-anchor="middle" font-size="24" fill="#112717">Oil refinery</text>
    <!-- ground platform -->
    <rect x="160" y="578" width="170" height="10" fill="#FFF7E4" stroke="#112717" stroke-width="3"/>
    <!-- A-frame support -->
    <path d="M 195 578 L 240 465 L 285 578" fill="none" stroke="#112717" stroke-width="3" stroke-linejoin="round"/>
    <!-- Walking beam -->
    <rect x="148" y="453" width="180" height="14" fill="#FFF7E4" stroke="#112717" stroke-width="3"/>
    <!-- Pivot -->
    <circle cx="240" cy="460" r="5" fill="#112717"/>
    <!-- Counterweight -->
    <circle cx="158" cy="460" r="22" fill="#112717" stroke="#112717" stroke-width="3"/>
    <!-- Horsehead -->
    <path d="M 320 453 L 343 453 L 355 518 L 330 526 Z"
          fill="#FFF7E4" stroke="#112717" stroke-width="3" stroke-linejoin="round"/>
    <!-- Polish rod -->
    <line x1="342" y1="526" x2="342" y2="585" stroke="#112717" stroke-width="6"/>
  </g>

  <!-- Factory -->
  <g>
    <rect x="540" y="373" width="120" height="30" fill="#DCE7E6"/>
    <text x="600" y="395" text-anchor="middle" font-size="24" fill="#112717">Industry</text>
    <rect x="508" y="418" width="26" height="62" fill="#FFF7E4" stroke="#112717" stroke-width="3"/>
    <rect x="548" y="438" width="26" height="42" fill="#FFF7E4" stroke="#112717" stroke-width="3"/>
    <rect x="588" y="428" width="26" height="52" fill="#FFF7E4" stroke="#112717" stroke-width="3"/>
    <rect x="490" y="475" width="220" height="110" fill="#FFF7E4" stroke="#112717" stroke-width="3"/>
    <rect x="628" y="505" width="22" height="22" fill="none" stroke="#112717" stroke-width="2.5"/>
    <rect x="665" y="505" width="22" height="22" fill="none" stroke="#112717" stroke-width="2.5"/>
    <rect x="628" y="540" width="22" height="22" fill="none" stroke="#112717" stroke-width="2.5"/>
  </g>

  <!-- Consumer products cluster -->
  <g>
    <rect x="810" y="433" width="300" height="30" fill="#DCE7E6"/>
    <text x="960" y="455" text-anchor="middle" font-size="24" fill="#112717">Fossil-based products</text>

    <!-- Spray bottle -->
    <g>
      <rect x="870" y="515" width="30" height="70" rx="3" fill="#FFF7E4" stroke="#112717" stroke-width="3"/>
      <rect x="878" y="492" width="14" height="24" fill="#FFF7E4" stroke="#112717" stroke-width="3"/>
      <path d="M 892 500 L 912 497 L 914 510 L 892 513 Z" fill="#FFF7E4" stroke="#112717" stroke-width="3" stroke-linejoin="round"/>
      <circle cx="921" cy="490" r="2" fill="#112717"/>
      <circle cx="926" cy="483" r="2" fill="#112717"/>
      <circle cx="917" cy="482" r="2" fill="#112717"/>
    </g>

    <!-- Smartphone with pointing finger -->
    <g>
      <rect x="928" y="503" width="48" height="82" rx="6" fill="#FFF7E4" stroke="#112717" stroke-width="3"/>
      <rect x="934" y="513" width="36" height="58" fill="none" stroke="#112717" stroke-width="2"/>
      <path d="M 946 533 L 946 548 L 942 548 L 942 563 L 958 563 L 958 548 L 954 548 L 954 536 L 950 536 L 950 533 Z"
            fill="#FFF7E4" stroke="#112717" stroke-width="2" stroke-linejoin="round"/>
    </g>

    <!-- Car (side profile) -->
    <g>
      <path d="M 998 562 L 1010 545 L 1020 534 L 1045 534 L 1055 545 L 1067 562 L 1067 572 L 998 572 Z"
            fill="#FFF7E4" stroke="#112717" stroke-width="3" stroke-linejoin="round"/>
      <line x1="1033" y1="538" x2="1033" y2="562" stroke="#112717" stroke-width="2.5"/>
      <circle cx="1002" cy="566" r="1.5" fill="#112717"/>
      <circle cx="1013" cy="575" r="9" fill="#FFF7E4" stroke="#112717" stroke-width="3"/>
      <circle cx="1013" cy="575" r="3" fill="#112717"/>
      <circle cx="1052" cy="575" r="9" fill="#FFF7E4" stroke="#112717" stroke-width="3"/>
      <circle cx="1052" cy="575" r="3" fill="#112717"/>
    </g>
  </g>

  <!-- Horizontal ground-level arrows -->
  <line x1="370" y1="540" x2="470" y2="540" stroke="#112717" stroke-width="8" marker-end="url(#arrSmall)"/>
  <line x1="720" y1="540" x2="855" y2="540" stroke="#112717" stroke-width="8" marker-end="url(#arrSmall)"/>

  <!-- L-shaped extraction arrow (cream for visibility on dark fossil band) -->
  <path d="M 350 830 L 180 830 L 180 605"
        fill="none" stroke="#FFF7E4" stroke-width="10" stroke-linejoin="miter"
        marker-end="url(#arrCream)"/>
</svg>
