<svg width="2007" height="2268" viewBox="0 0 2007 2268" fill="none" xmlns="http://www.w3.org/2000/svg">
<g clip-path="url(#clip0_11_4946)">
<path d="M995.689 1322.39C971.872 1342.52 940.425 1327.87 914.202 1319.4C888.286 1310.31 861.448 1301.93 836.889 1290.15C818.886 1281.35 800.704 1273.23 781.6 1265.88C769.385 1260.79 756.555 1256.02 746.849 1246.98C735.223 1236.2 731.203 1219.38 724.903 1203.56C718.373 1185.43 708.36 1167.74 707.387 1148.2C706.951 1139.44 708.411 1130.61 710.536 1122.16C715.376 1104.98 719.346 1084.42 722.572 1065.67C730.742 1016.13 743.52 968.576 753.2 919.414C759.654 894.167 759.961 864.106 779.475 847.565C793.662 835.07 817.478 832.611 836.48 824.674C849.617 820.116 862.114 812.46 875.354 808.798C888.977 804.906 902.166 811.18 913.434 818.759C922.653 824.827 932.025 830.717 941.706 836.043C969.081 851.099 996.175 863.748 1023.99 877.677C1051.05 892.323 1081.25 902.002 1097.59 929.272C1106.5 944.84 1112.21 962.021 1120.86 978.153C1132.05 1000.43 1142.63 1020.84 1156.82 1040.91C1166.65 1056.35 1181.66 1070.36 1183.71 1088.18C1185.17 1103.75 1176.84 1117.73 1173.39 1132.68C1167.09 1155.47 1164.83 1178.34 1144.86 1194.67C1095.08 1237.13 1045.86 1278.71 996.073 1322.11L995.74 1322.37L995.689 1322.39Z" fill="#50C134"/>
<path d="M1364.2 1672.49C1331.47 1674.82 1288.7 1676.49 1256.1 1678.44C1243.86 1679.25 1232.93 1679 1223.66 1672.6C1212.47 1665.22 1199.15 1652.88 1186.24 1643.97C1159.02 1624.23 1132.41 1605.33 1108.06 1585.49C1093.77 1573.99 1078.79 1562.16 1060.84 1550.46C1046.24 1540.6 1028.9 1530.21 1020.61 1514.53C1013.54 1501.3 1012.72 1488.49 1010.7 1469.6C1009.54 1458.1 1008.37 1445.96 1007.24 1434.42C1005.55 1417.54 1004.06 1402.1 1003.22 1385.46C1001.66 1364.82 1005.16 1347.41 1021.07 1333.07C1046.45 1309.87 1075.92 1290.15 1099.66 1265.24C1116.64 1246.8 1137.69 1229.16 1159.02 1213.75C1173.46 1203.66 1183.48 1193.95 1199.71 1208.45C1228.78 1231.85 1260.48 1257.76 1289.91 1281.3C1308.34 1296.12 1324.89 1313.63 1344.45 1327.46C1357.21 1336.58 1370.83 1345.33 1380.79 1357.57C1393.44 1373.01 1400.07 1392.73 1409.22 1410.86C1426.68 1443.97 1438.54 1482.6 1451.88 1518.2C1464.17 1551.79 1487.73 1566.46 1462.69 1602.87C1431.37 1655.26 1429.47 1667.25 1364.61 1672.44H1364.22L1364.2 1672.49Z" fill="#50C134"/>
<path d="M1604.38 1525.39C1583.56 1530.67 1564.99 1537.07 1543.1 1544.37C1499.1 1560.42 1490.01 1541.8 1474.98 1503.86C1467.86 1486.63 1461.74 1471.7 1454.62 1454C1450.01 1442.56 1444.97 1430.17 1440.33 1418.62C1431.78 1395.91 1424.1 1383.97 1422.41 1362.57C1421.66 1347.82 1431.21 1334.78 1439.31 1322.98C1445.4 1314.2 1451.09 1306.13 1457.03 1298.02C1477.75 1270.67 1497.08 1241.3 1522.74 1217.49C1529.06 1211.65 1535.52 1206.32 1541.89 1200.61C1556.57 1187.53 1570.53 1171.73 1584.3 1157.34C1608.86 1131.79 1629.37 1110.07 1651.27 1083.54C1662.26 1070.87 1677.75 1071.46 1693.19 1074.76C1706.2 1077.37 1719.64 1082.11 1728.81 1091.94C1736.78 1100.65 1739.57 1110.79 1745.43 1126.79C1749.58 1138.42 1753.81 1150.3 1758.01 1162.05C1787.66 1245.24 1792.45 1243.73 1768.4 1330.59C1762.1 1356.98 1756.39 1390.68 1750.86 1413.21C1746.84 1429.78 1741.69 1444.4 1736.9 1462.3C1733.58 1474.57 1730.3 1487.55 1720.57 1496.1C1706.87 1507.88 1686.69 1507.7 1669.55 1510.98C1647.89 1514.43 1626.1 1519.99 1604.84 1525.21L1604.35 1525.34L1604.38 1525.39Z" fill="#50C134"/>
<path d="M1566.58 1948.6C1550.83 1956.77 1543.64 1945.47 1537.85 1928.06C1533.5 1915.54 1529.83 1902.18 1525.43 1888.78C1519.72 1871.01 1513.03 1853.37 1506.56 1836.06C1489.96 1794.22 1476.67 1747.57 1465.61 1704.6C1460.84 1687.06 1457.39 1669.22 1464.05 1651.5C1470.78 1631.88 1485.38 1613.6 1498.98 1598.09C1509.99 1585.56 1520.51 1574.81 1537.23 1570.71C1575.78 1560.93 1614.27 1551 1652.81 1539.99C1682 1532.31 1714.01 1521.4 1742.74 1534.69C1761.11 1543.24 1778.88 1555.12 1796.14 1565.8C1807.46 1573.07 1818.75 1581.54 1823.85 1593.91C1831.32 1611.3 1829.94 1630.96 1833.5 1649.32C1835.91 1663.1 1839.26 1677.13 1841.34 1691.47C1844.33 1711.03 1845.77 1730.18 1848.74 1747.95C1850.97 1762.63 1856.8 1779.6 1840.98 1788.41C1793.73 1816.32 1733.6 1854.37 1686.71 1878.77C1663.56 1890.83 1639.69 1902.25 1617.36 1915.46C1600.74 1924.68 1583.87 1938.87 1566.97 1948.47L1566.61 1948.65L1566.58 1948.6Z" fill="#50C134"/>
<path d="M1747.07 1047.83C1730.89 1055.05 1712.83 1052.41 1695.93 1049.44C1676.39 1046.14 1658.88 1042.63 1642.92 1032.36C1614.29 1013.16 1587.84 990.443 1559.18 970.983C1549.45 964.479 1538.93 958.769 1530.3 950.934C1513.83 936.595 1513.29 916.341 1511.86 893.655C1510.47 871.583 1508.25 848.538 1510.81 826.594C1515.08 786.291 1550.53 760.532 1579.57 736.617C1599.52 720.537 1618.98 702.843 1638.62 685.611C1655.42 670.376 1674.88 652.81 1699.24 658.418C1712.32 660.799 1724.82 666.612 1737.14 671.553C1757.03 679.747 1775.7 684.766 1798.34 693.292C1820.67 702.715 1846.69 709.04 1864.72 725.683C1879.55 740.176 1883.18 761.71 1888.56 780.94C1893.6 799.862 1898.68 818.836 1894.04 838.142C1890.86 853.736 1883.75 868.894 1879.83 884.155C1873.5 907.738 1873.37 927.736 1863.21 948.092C1851.73 970.087 1831.99 982.275 1812.73 998.304C1791.63 1014.74 1771.53 1035.89 1747.48 1047.59L1747.05 1047.8L1747.07 1047.83Z" fill="#50C134"/>
<path d="M718.143 1949.31C694.609 1962.07 669.871 1974.25 646.772 1987.59C622.187 2000.53 590.151 2026.87 563.723 2019.81C548.716 2016.12 535.605 2007.13 521.981 1999.55C508.587 1991.69 493.914 1983.98 483.517 1976.87C458.446 1961.68 463.439 1937.41 467.101 1912.21C471.455 1883.2 472.479 1853.63 475.962 1824.44C479.01 1798.76 482.492 1773.53 484.567 1747.72C485.796 1734.95 486.666 1720.25 488.305 1709.65C489.381 1703.07 490.943 1698.1 493.888 1694.16C497.55 1689.14 503.671 1685.4 512.326 1680.38C527.026 1672.01 544.004 1662.28 559.062 1653.73C581.137 1641.15 595.734 1631.73 619.319 1634.47C641.138 1638.64 668.411 1651.47 691.28 1659.33C724.648 1672.01 754.149 1682.12 784.725 1698.89C827.774 1721.73 826.467 1767.06 833.74 1810.74C837.607 1839.34 846.673 1870.55 820.424 1890.96C806.774 1901.97 790.615 1909.34 775.327 1917.77C756.249 1927.96 737.196 1939.02 718.578 1949.08L718.143 1949.31Z" fill="#50C134"/>
<path d="M290.402 1862.72C272.092 1851.96 254.729 1840.67 236.393 1830.05C220.593 1821.16 204.254 1813.12 188.531 1804.18C154.241 1785.41 122.87 1764.98 87.8632 1744.83C74.1882 1735.82 50.7563 1727.14 47.8625 1710.03C46.8381 1693.06 58.5925 1675.47 66.8129 1659.85C81.7171 1633.65 99.1054 1611.27 118.261 1588.3C129.324 1574.86 139.362 1561.42 152.704 1553.05C164.407 1545.36 178.262 1542.39 191.937 1540.09C206.098 1537.68 219.415 1536.04 234.012 1534.56C254.908 1532.43 282.54 1530.33 300.492 1532.28C333.962 1534.35 349.071 1557.89 375.781 1589.94C389.354 1606.46 405.436 1623.72 418.855 1639.13C466.717 1691.55 463.183 1695.98 455.578 1764.57C451.685 1800.24 448.049 1844.51 443.081 1878.08C440.545 1893.52 441.006 1910.7 434.809 1925.19C424.719 1948.19 400.365 1929.96 386.588 1920.46C368.944 1908.53 350.096 1898.8 332.144 1887.81C318.392 1879.51 304.794 1870.89 290.837 1862.95L290.402 1862.69V1862.72Z" fill="#50C134"/>
<path d="M1094.49 1939.94C1080.66 1957.07 1062.86 1979.43 1039.35 1976.51C1029.59 1974.87 1021.89 1969.72 1012.95 1964.73C1004.47 1959.81 994.101 1954.03 984.857 1948.75C962.884 1936.23 937.097 1921.89 917.224 1910.01C867.979 1881.49 873.382 1880.33 866.314 1825.46C863.523 1804.9 861.577 1783.83 858.119 1763.65C855.303 1747.31 847.543 1733.03 848.337 1716.54C850.155 1690.03 881.218 1660.28 897.967 1640.36C922.525 1613.73 946.623 1589.1 973.205 1564.52C981.271 1557.12 990.721 1548.72 1000.63 1546.9C1023.45 1544.01 1044.14 1569.97 1061.4 1582.24C1079.71 1596.7 1099.33 1608.66 1118.28 1624.36C1136.2 1639.49 1153.62 1655.62 1172.39 1669.83C1184.73 1679.79 1199.15 1689.57 1203.45 1703.76C1206.83 1714.33 1202.5 1726.91 1198.1 1737.94C1192.31 1752.2 1185.68 1766.95 1179.35 1780.98C1165.94 1810.69 1150.78 1836.7 1136.64 1866.56C1124.65 1892.27 1112.49 1916.85 1094.82 1939.51L1094.49 1939.94Z" fill="#50C134"/>
<path d="M877.916 767.215C869.567 783.142 851.078 791.489 833.613 798.71C814.073 806.391 793.894 813.049 773.996 815.328C757.12 817.223 740.858 812.767 725.186 806.622C694.02 794.203 664.673 777.124 634.659 762.068C622.521 755.821 608.769 746.577 600.472 736.847C591.586 726.605 589.178 717.131 584.594 701.204C576.348 672.065 565.926 636.013 557.347 605.722C544.671 564.599 542.622 553.845 572.61 521.992C593.737 499.997 615.888 476.158 637.118 453.472C650.767 439.952 665.492 419.673 681.523 411.3C702.65 402.44 714.712 417.061 732.331 434.652C740.474 442.871 748.925 451.398 756.992 459.566C778.349 481.638 796.506 498.256 817.07 519.38C834.944 538.098 850.258 559.53 870.617 579.195C876.866 585.289 883.575 591.229 889.414 597.63C909.286 618.294 905.573 637.088 901.117 662.847C898.019 681.463 895.099 700.948 891.872 719.154C888.697 735.336 885.624 752.159 878.146 766.831L877.941 767.215H877.916Z" fill="#50C134"/>
<path d="M832.177 1669.96C814.763 1681.35 795.045 1669.14 777.401 1662.59C759.705 1655.16 739.244 1647.84 722.188 1641.97C709.051 1637.36 698.065 1633.57 686.029 1628.84C670.459 1622.67 651.688 1616.01 645.439 1599.11C642.289 1590.84 643.134 1581.54 644.517 1572.94C646.72 1559.78 649.869 1548.36 653.224 1532.71C655.708 1521.45 658.295 1509.64 660.753 1498.33C669.588 1457.41 678.91 1417.11 687.719 1375.98C693.814 1349.28 697.22 1318.6 715.607 1297.79C736.452 1274.64 755.633 1277.2 781.114 1289.44C809.104 1301.6 854.841 1321.39 885.443 1334.66C908.645 1345.41 934.714 1350.38 958.249 1359.19C971.437 1364.69 973.742 1376.34 975.586 1390.6C977.43 1405 978.505 1421.61 979.222 1436.46C980.016 1455.41 980.784 1474.82 981.22 1488.67C981.578 1501.6 980.503 1515.2 974.382 1526.9C965.086 1544.65 945.931 1554.04 931.821 1567.46C919.324 1578.75 909.259 1592.76 897.735 1605.64C883.932 1621.26 868.49 1635.57 854.073 1650.45C847.44 1657.16 840.116 1664.89 832.51 1669.76L832.152 1669.96H832.177Z" fill="#50C134"/>
<path d="M301.158 1501.53C294.115 1504.4 286.305 1504.96 278.52 1505.75C250.196 1508.21 201.591 1513.25 171.117 1515.61C141.436 1518.73 124.253 1487.91 108.555 1466.96C97.7738 1451.55 86.8389 1436.11 75.1101 1421.36C43.5091 1381.67 -8.09232 1336.24 25.5318 1282.04C36.7996 1262.3 55.4171 1244.86 72.0115 1228.22C90.0656 1210.24 112.115 1189.01 131.884 1169.86C143.46 1158.11 155.419 1149.32 172.09 1149.86C194.702 1149.56 230.708 1151.14 254.396 1155.32C277.085 1159.03 283.052 1174.55 291.529 1193.65C296.497 1205.27 301.158 1218.05 305.87 1230.14C318.11 1264.47 338.367 1296.5 352.272 1328.82C358.367 1343.34 363.873 1358.78 360.518 1373.91C352.093 1409.94 337.112 1483.3 301.465 1501.4L301.158 1501.53Z" fill="#50C134"/>
<path d="M1055.92 866.308C1029.19 848.205 999.66 835.146 970.21 820.807C954.665 812.69 936.227 804.855 925.779 793.563C907.161 774.538 919.761 731.957 923.167 707.734C925.599 695.187 928.237 682.666 930.542 670.094C936.406 631.532 945.805 598.194 983.116 578.887C1013.41 565.24 1038.94 568.62 1073.05 567.544C1128.47 567.109 1198.61 566.136 1251.32 565.701C1281.15 566.597 1294.18 584.981 1300.38 612.456C1305.07 632.812 1310.63 656.933 1305.17 675.522C1294.31 709.142 1254.93 741.149 1229.47 764.655C1214.52 777.713 1204.4 786.419 1189.62 800.733C1170.7 818.989 1150.85 838.065 1132.08 856.271C1105.94 884.539 1088.01 887.202 1056.38 866.539L1055.95 866.283L1055.92 866.308Z" fill="#50C134"/>
<path d="M456.449 808.03C438.983 817.658 420.11 833.841 400.417 840.524C388.739 843.673 378.521 839.679 364.514 833.815C345.922 825.57 326.843 817.095 307.765 809.797C290.402 802.756 273.885 797.711 262.95 784.601C255.293 774.948 252.066 762.145 248.404 749.983C245.664 740.509 242.924 730.907 240.209 721.433C235.574 705.148 232.091 692.857 228.557 678.211C224.076 657.65 218.519 636.32 219.85 614.837C221.003 586.006 245.818 570.898 265.434 553.256C283.718 537.893 300.236 522.12 317.906 508.959C340.826 491.112 363.31 488.142 389.994 499.818C408.202 507.423 423.26 513.389 443.286 521.198C459.266 527.728 476.065 535.281 490.687 544.166C501.904 550.977 509.126 557.251 514.631 568.594C532.481 611.125 539.6 656.83 554.914 700.385C564.747 732.904 564.901 747.32 532.762 763.81C507.794 778.251 481.084 793.512 456.807 807.825L456.449 808.03Z" fill="#50C134"/>
<path d="M665.723 1136.78C649.231 1136.47 632.508 1126.69 617.066 1120.93C582.879 1106.74 550.023 1094.73 515.963 1081.65C498.242 1074.94 476.757 1066.72 458.011 1059.58C450.072 1056.4 441.57 1052.92 436.013 1046.52C428.92 1038.22 428.74 1026.52 427.614 1015.95C425.718 988.523 419.675 961.279 415.629 934.316C408.561 877.728 404.975 866.41 457.96 836.478C492.736 816.019 527.026 794.997 562.136 775.46C579.729 765.653 593.404 770.621 609.717 780.018C621.573 786.47 633.533 793.102 645.773 798.684C665.492 807.876 681.165 812.844 700.55 821.652C724.213 832.125 737.632 849.024 734.2 875.756C729.437 923.382 715.198 965.273 706.21 1012.72C701.344 1037.35 696.581 1062.16 691.664 1086.59C687.464 1102.72 686.158 1135.47 666.107 1136.78H665.723Z" fill="#50C134"/>
<path d="M1381.74 1326.16C1364.84 1318.42 1351.83 1304.42 1337.26 1292.69C1315.72 1274.38 1294.44 1256.13 1272.8 1237.54C1257.15 1224.12 1241.46 1211.32 1223.4 1201.18C1209.47 1193.57 1196.26 1183.71 1195.69 1166.25C1195.13 1141.34 1202.61 1113.48 1221.97 1098.45C1241.97 1083.31 1267.65 1074.86 1290.32 1062.83C1329.98 1042.78 1369.04 1022.25 1410.06 1006.52C1426.43 1000.17 1443.28 994.207 1459.23 986.73C1475.03 979.535 1490.24 969.114 1507.53 969.882C1521.74 970.497 1534.34 980.124 1545.87 987.831C1565.05 1001.15 1583.07 1014.05 1603.64 1029.39C1633.06 1050.33 1635.91 1064.83 1610.5 1091.82C1590.99 1112.76 1569.6 1130.66 1551.55 1151.3C1539.87 1164.43 1529.45 1178.69 1516.88 1191.04C1503.07 1204.68 1488.5 1216.03 1476.41 1231.62C1461.72 1250.21 1447.96 1268.36 1434.72 1286.67C1421.79 1303.9 1407.02 1336.58 1382.12 1326.28L1381.69 1326.1L1381.74 1326.16Z" fill="#50C134"/>
<path d="M968.979 2264.36C945.65 2252.23 922.166 2235.46 900.553 2222.52C863.753 2200.09 812.894 2169.91 779.757 2149.98C749.154 2129.19 616.399 2070.74 614.812 2040.78C615.093 2036.07 618.96 2031.74 625.746 2027.26C632.558 2022.75 640.881 2018.65 649.383 2014.48C661.496 2008.59 673.839 2002.16 685.773 1995.79C717.681 1978.66 748.079 1962.83 779.731 1946.5C800.449 1936.51 821.729 1919.82 842.984 1909.42C860.987 1900.95 878.837 1909.78 893.766 1920.41C906.443 1929.09 919.529 1937.9 932.077 1945.6C949.824 1956.69 968.262 1966.32 986.265 1977.05C996.867 1983.4 1007.01 1990.87 1012.51 2001.99C1021.37 2019.14 1017.84 2039.63 1017.3 2058.27C1015.48 2092.96 1012.36 2127.99 1009.29 2162.74C1007.72 2180.61 1006.73 2198.51 1006.44 2216.43C1006.52 2242.5 1004.45 2279.5 969.389 2264.54L968.979 2264.36Z" fill="#50C134"/>
<path d="M1384.15 992.569C1338.15 1007.85 1250.5 1072.18 1206.09 1062.91C1191.21 1058.45 1182.58 1043.4 1175.28 1030.46C1164.3 1010.24 1153.77 989.752 1143.81 968.986C1138.02 956.644 1130.95 944.507 1127.55 931.269C1122.35 912.884 1132.08 895.498 1144.55 882.081C1196.26 825.109 1252.01 788.468 1297.95 732.674C1309.78 717.72 1325.73 698.439 1346.63 707.17C1370.37 717.489 1388.78 738.307 1407.37 755.309C1422.61 770.288 1441.84 784.294 1458.77 798.377C1467.55 805.931 1473.98 814.406 1476.88 825.416C1481.77 845.03 1479.36 869.202 1482.3 890.121C1483.12 898.853 1484.25 908.224 1485.15 916.725C1486.09 926.737 1486.89 936.569 1481.1 944.942C1464.97 965.196 1410.98 981.686 1384.51 992.415L1384.12 992.569H1384.15Z" fill="#50C134"/>
<path d="M1317.46 1959.3C1275.39 1958.28 1229.16 1957.15 1186.63 1956.13C1142.96 1955.13 1111.41 1958.07 1143.71 1906.58C1170.31 1861.46 1192.34 1810.05 1214.77 1763.47C1223.02 1746.88 1226.81 1725.17 1243.81 1715.18C1252.49 1710.11 1263.76 1709.09 1273.93 1708.5C1312.21 1706.27 1349.98 1701.61 1387.91 1697.28C1410.52 1694.62 1428.09 1696.23 1437.75 1719.89C1447.04 1741.42 1454.31 1767.34 1462.33 1788.77C1471.73 1815.14 1482.25 1845.38 1492.47 1872.09C1500.05 1891.98 1509.65 1913.31 1515.75 1934.16C1529.25 1985.29 1472.19 1964.4 1443.76 1963.14C1405.43 1960.61 1357.13 1960.61 1317.79 1959.38H1317.44L1317.46 1959.3Z" fill="#50C134"/>
<path d="M1570.94 714.826C1554.55 728.986 1539.08 739.561 1524.15 753.772C1495.62 783.27 1485.17 787.674 1454.54 758.304C1424.25 731.547 1385.61 710.474 1354.36 682.564C1341.12 670.401 1336.33 653.962 1333.42 636.551C1330.29 619.498 1325.07 602.239 1319.28 585.826C1310.78 562.013 1300.71 541.529 1308.81 517.946C1311.65 509.548 1315.85 501.815 1320.2 493.596C1326.89 481.254 1334.49 465.891 1346.99 460.488C1353.77 457.492 1362.51 458.567 1370.29 460.078C1389.47 463.791 1410.06 469.655 1430.42 474.622C1464.17 482.944 1501.74 489.832 1536.34 496.899C1556.26 501.175 1577.67 504.273 1597.77 510.777C1631.53 521.045 1640.13 555.125 1650.66 584.93C1659.72 608.948 1667.02 631.865 1645.05 651.479C1620.69 672.757 1595.88 692.755 1571.37 714.519L1570.96 714.852L1570.94 714.826Z" fill="#50C134"/>
<path d="M668.898 1292.61C628.385 1304.08 569.254 1314.68 520.777 1326.05C492.403 1332.45 470.84 1336.55 441.8 1342.08C417.139 1346.77 394.271 1351.12 381.902 1327.31C370.89 1306 363.054 1282.93 353.374 1261.89C345.051 1243.32 335.652 1223.43 326.894 1204.43C315.985 1179.72 302.643 1161.05 318.956 1139.13C324.846 1131.76 333.296 1126.28 341.133 1120.75C354.219 1111.74 372.759 1098.93 386.204 1089.72C397.062 1081.65 411.454 1074.38 424.386 1077.91C438.369 1080.93 455.859 1088.61 474.169 1094.71C517.499 1110.46 560.163 1124.49 603.314 1141.31C609.178 1143.67 614.991 1146.02 620.907 1148.22C639.396 1155.5 659.192 1158.95 674.762 1171.04C689.564 1183.02 698.219 1203.48 705.492 1221.81C719.551 1256.77 701.907 1280.32 669.282 1292.48L668.923 1292.61H668.898Z" fill="#50C134"/>
<path d="M479.112 1658.21C468.484 1655.8 459.675 1648.22 452.12 1640.64C430.43 1618.54 415.09 1597.11 393.297 1574.86C375.806 1555.17 349.66 1537.61 348.456 1509.11C347.842 1492.13 358.418 1472.44 364.718 1453.59C376.037 1424.69 378.956 1385.71 412.785 1374.35C426.435 1369.15 441.083 1367.28 455.372 1364.26C472.556 1360.8 489.893 1356.06 507.204 1352.55C530.559 1348.05 553.325 1344.69 576.629 1338.98C590.074 1335.94 603.57 1332.92 616.758 1329.77C630.151 1326.64 648.922 1322.03 661.189 1326.72C675.171 1332.71 664.569 1355.04 662.393 1368.81C651.458 1415.77 640.984 1458.36 631.124 1504.29C627.283 1522.06 624.005 1538.12 619.344 1556.63C615.759 1570.43 611.227 1584.72 602.315 1596.01C587.462 1614.6 562.032 1621.85 541.699 1633.96C522.006 1643.3 502.8 1662.64 479.573 1658.31L479.112 1658.21Z" fill="#50C134"/>
<path d="M1625.76 483.507C1606.71 494.62 1581.56 482.278 1559.87 478.463C1534.19 472.369 1510.93 466.633 1484.56 460.36C1447.58 451.398 1419.77 444.971 1387.68 437.008C1369.22 431.887 1348.5 427.457 1334.93 414.193C1317.79 395.732 1308.29 367.463 1297.2 344.316C1284.02 313.871 1268.88 285.782 1262.1 253.75C1258.05 235.928 1250.8 211.834 1241.71 193.039C1237.95 184.538 1234.72 176.242 1234 168.33C1231.65 150.893 1245.42 139.729 1261.71 147.129C1273.06 151.994 1283.12 160.188 1294.11 165.949C1309.75 174.373 1328.75 181.978 1344.94 191.861C1394.54 223.1 1446.94 248.04 1494.75 280.635C1533.39 305.652 1577.06 331.385 1616.29 351.947C1631.35 360.55 1651.65 369.358 1657.75 386.335C1663.15 402.722 1654.39 419.698 1649.86 435.446C1644.38 451.884 1639.44 474.75 1626.15 483.225L1625.79 483.456L1625.76 483.507Z" fill="#50C134"/>
<path d="M906.546 580.091C897.173 573.101 890.105 562.705 882.499 553.666C866.34 534.411 849.874 514.131 832.562 496.182C817.351 481.023 799.911 467.401 785.391 451.782C775.634 441.745 765.647 431.707 754.789 422.413C744.878 413.732 733.662 404.412 726.081 393.939C700.703 357.657 728.207 331.616 758.707 311.592C795.25 287.242 828.004 254.774 866.698 232.011C887.595 218.952 905.009 226.301 925.009 236.133C951.975 248.782 978.788 260.97 1005.16 274.746C1018.84 281.557 1032.59 292.03 1033.05 308.494C1033.74 318.045 1031.21 327.596 1028.83 336.865C1025.27 350.129 1021.48 364.98 1018.15 378.499C1004.91 430.094 991.233 481.356 976.508 532.516C971.489 548.289 960.631 561.168 947.161 572.153C933.998 582.933 920.451 590.896 906.955 580.296L906.597 580.04L906.546 580.091Z" fill="#50C134"/>
<path d="M1138.89 539.148C1109.67 538.943 1077.28 538.533 1047.47 538.277C1021.55 538.124 1007.93 537.304 1010.62 505.067C1012.62 484.147 1021.17 464.457 1028.6 445.022C1036.05 425.383 1039.12 404.412 1043.35 383.723C1047.47 363.571 1052.67 343.881 1059.02 324.472C1062.12 315.331 1066.04 306.266 1071.8 298.534C1081.15 285.628 1095.31 277.64 1109.54 269.932C1130.62 257.642 1154.9 250.754 1173.59 234.904C1186.93 223.766 1210.03 198.596 1223.09 222.306C1228.78 234.597 1229.03 249.704 1233.16 262.686C1237.74 277.537 1243.5 287.395 1251.14 304.423C1257.18 317.482 1263.56 331.334 1269.65 344.495C1277.92 362.317 1284.91 378.09 1294.03 394.964C1300.74 407.69 1309.65 422.541 1311.55 436.188C1314.29 454.061 1304.32 471.037 1296.59 486.631C1284.91 508.6 1272.72 533.745 1245.68 536.203C1210.96 539.276 1173.49 539.173 1139.4 539.173H1138.97L1138.89 539.148Z" fill="#50C134"/>
<path d="M357.676 1080.22C345.051 1088.23 331.76 1095.99 319.877 1104.85C298.699 1120.49 299.928 1126.33 276.163 1126.77C263.641 1127 249.198 1126.02 235.574 1125.23C154.062 1123.36 161.232 1104.21 145.79 1033.56C142.358 1017.53 138.722 1000.28 134.906 984.144C130.604 963.506 121.436 947.401 122.435 926.865C123.69 907.635 138.978 893.757 152.832 882.03C164.689 872.069 174.958 864.209 187.609 853.557C200.746 842.854 213.858 830.512 227.558 820.833C243.564 809.003 262.898 813.587 279.621 822.216C300.287 832.509 321.363 842.214 342.976 850.126C356.395 855.375 370.762 859.472 377.522 872.402C387.279 890.659 389.251 914.933 391.658 934.521C394.399 960.997 397.062 989.598 399.648 1016.66C400.084 1021.68 400.391 1027.34 400.109 1031.9C399.136 1055.28 376.063 1067.29 358.085 1079.93L357.65 1080.22H357.676Z" fill="#50C134"/>
<path d="M1309.52 2103.36C1272.16 2127.04 1232.7 2149.5 1193.62 2170.32C1153.77 2192.52 1117.84 2216.76 1078.2 2241.22C1064.17 2249.85 1045.88 2264.31 1034.95 2250.61C1030.62 2245.62 1030.65 2236.15 1031.47 2228.8C1032.08 2221.22 1033 2210.93 1034.08 2198.3C1037.33 2160.35 1042.35 2102.72 1045.7 2063.62C1048.5 2041.52 1045.14 2024.8 1060.58 2006.36C1087.19 1974 1115.95 1977.63 1154.31 1979.22C1189.14 1980.48 1229.29 1981.71 1265.02 1983.17C1299.72 1985.09 1337.77 1987.6 1373.32 1988.98C1399.72 1990.49 1417.8 1990.28 1442.07 1992.66C1474.65 1997.61 1464.99 2012.05 1440.51 2024.77C1412.62 2040.73 1382.02 2057.37 1354.31 2073.78C1339.87 2082.67 1325.04 2093.42 1309.93 2103.05L1309.5 2103.33L1309.52 2103.36Z" fill="#50C134"/>
<path d="M1085.19 250.498C1059.35 263.685 1032.64 258.768 1005.47 248.168C983.268 239.948 959.452 229.271 939.35 218.901C904.291 201.771 901.551 185.409 896.558 148.614C892.127 124.468 887.953 99.1186 892.102 74.6654C897.198 42.5818 937.634 26.2968 964.497 12.1626C1000.81 -5.50515 1011.05 -3.66156 1046.55 15.901C1058.58 22.3023 1070.59 28.6525 1082.19 35.7196C1099.43 46.141 1114.95 59.5838 1132.57 69.9284C1154 83.192 1179.07 91.6162 1198.51 107.824C1229.67 135.504 1196.74 178.137 1172.77 199.159C1158.1 212.551 1143.76 222.229 1125.91 230.09C1112.39 236.389 1099.12 243.943 1085.6 250.319L1085.14 250.523L1085.19 250.498Z" fill="#50C134"/>
<path d="M1844.69 1560.21C1827.89 1558.29 1813.01 1549.2 1798.49 1541.11C1777.57 1529.54 1763 1514.41 1766 1489.98C1770.32 1442.48 1781.26 1404.38 1791.84 1356.22C1795.58 1338.47 1798.8 1319.63 1804.51 1302.6C1812.17 1279.37 1827.69 1271.8 1850.89 1272.38C1877.29 1272.31 1900.75 1275.56 1928.18 1278.17C1949.84 1281.68 1983.24 1278.5 1995.68 1296.81C2000.98 1305.8 1999.29 1312.79 1999.6 1326.8C1999.6 1342.72 1999.47 1359.52 1999.42 1379.93C1999.19 1424.58 1999.27 1467.91 1998.98 1494.13C2000.85 1516.94 1978.98 1528.21 1959.75 1534.23C1936.96 1541.86 1914.19 1548.54 1891.45 1553.94C1876.27 1557.71 1860.9 1562.21 1845.2 1560.32L1844.72 1560.27L1844.69 1560.21Z" fill="#50C134"/>
<path d="M1999.78 596.043C1999.78 613.583 1966.54 634.912 1952.61 646.691C1932.99 660.876 1917.63 673.96 1897.47 684.202C1875.12 695.366 1856.78 688.248 1835.14 680.003C1824.15 675.983 1810.68 671.067 1798.14 666.484C1779.19 659.621 1760.88 652.861 1744.41 646.383C1731.53 641.365 1716.83 636.909 1704.97 629.151C1685.18 617.577 1678.06 590.922 1668.99 569.362C1658.44 543.27 1647.02 518.561 1655.39 489.857C1659.13 475.518 1664.28 460.59 1668.38 445.893C1673.29 427.611 1683.2 403.285 1706.51 408.842C1719.06 411.505 1731.48 421.67 1743.82 427.867C1756.5 434.806 1770.25 438.237 1782.18 445.534C1791.45 451.321 1796.5 458.875 1805.84 465.302C1821 475.339 1838.47 483.277 1855.63 492.571C1885.82 508.319 1915.68 524.169 1943.72 543.577C1954.84 551.285 1965.54 559.402 1976.58 567.109C1986.1 574.074 1999.14 583.573 1999.73 595.736V596.069L1999.78 596.043Z" fill="#50C134"/>
<path d="M222.59 783.5C216.726 799.12 200.541 810.719 188.352 822.036C169.709 838.552 153.063 854.274 133.139 870.175C114.061 886.152 93.2156 893.732 70.4751 881.492C52.1649 871.839 29.5013 862.339 15.5702 847.514C5.17306 836.555 2.6378 824.238 3.27802 810.053C3.27802 778.686 3.32924 699.284 3.35485 649.225C3.35485 642.44 3.35485 636.013 3.35485 629.432C3.71337 615.913 2.22807 609.204 5.63402 599.09C15.8775 577.556 36.9022 578.119 60.6158 582.549C71.0129 584.264 81.7429 586.108 92.0632 587.9C108.683 590.691 124.176 593.943 140.592 597.118C156.315 600.242 172.986 602.854 183.384 612.43C195.394 623.262 198.313 640.878 201.899 656.062C207.379 679.952 212.245 705.173 217.443 728.73C220.593 746.475 228.224 765.295 222.77 783.065L222.616 783.5H222.59Z" fill="#50C134"/>
<path d="M503.645 520.814C491.122 516.845 479.009 509.164 467.127 503.428C447.152 493.468 426.64 485.76 405.82 477.362C374.782 466.121 357.906 455.981 348.508 423.539C340.467 402.236 338.341 382.11 358.111 366.618C384.667 346.467 413.298 335.482 441.928 317.149C454.604 309.237 466.999 300.531 479.803 292.9C497.729 282.3 515.937 274.183 533.658 263.787C548.306 256.208 567.794 241.587 583.313 253.57C590.765 259.485 596.271 271.827 603.749 284.066C611.713 297.586 621.137 309.288 634.172 318.583C649.281 330.617 676.657 340.552 680.524 359.577C682.649 374.274 670.46 388.511 660.165 398.344C644.723 413.22 629.127 427.047 613.429 442.359C596.988 458.235 577.654 478.232 560.522 495.644C543.876 512.544 529.766 529.827 504.106 520.942L503.619 520.789L503.645 520.814Z" fill="#50C134"/>
<path d="M1916.27 1251.67C1901.03 1249.57 1885.67 1249.08 1870.28 1249.01C1850.48 1248.83 1830.48 1249.72 1817.14 1235.41C1806.97 1224.02 1802.05 1204.61 1796.42 1190.17C1786.77 1163.08 1777.78 1135.68 1768.74 1108.31C1764.77 1095.17 1758.21 1076.68 1766.36 1065.9C1771.84 1057.86 1780.41 1052.38 1788.94 1045.65C1796.96 1039.53 1806.2 1032.46 1814.81 1025.88C1826.05 1017.28 1833.73 1011.52 1842.72 1004.35C1854.94 994.258 1869.1 980.816 1885.1 989.265C1895.83 994.873 1904.28 1004.78 1912.43 1013.54C1930.48 1033.26 1951.71 1061.96 1969.89 1083.83C1980.39 1097.04 1992.86 1105.9 1999.91 1120.75C2003.57 1129.12 2003.52 1138.75 2003.65 1147.94C2003.75 1165.76 2003.85 1192.91 2003.95 1211.44C2003.62 1223.07 2005.36 1236.1 1998.98 1246.14C1981.42 1267.88 1941.54 1254.13 1916.76 1251.75L1916.24 1251.67H1916.27Z" fill="#50C134"/>
<path d="M130.784 1114.53C127.378 1134.24 108.402 1151.68 93.4206 1166.22C79.5919 1179.31 65.7377 1192.01 53.087 1205.22C40.9229 1216.85 30.9867 1232.34 14.674 1237.66C7.60605 1239.81 1.45998 1234.95 0.819763 1227.7C-0.178974 1177.95 0.589285 954.877 0.230764 899.544C-2.99592 864.721 28.7588 881.518 50.603 892.656C64.9694 900.286 80.4626 908.557 88.7598 923.024C94.5218 933.036 96.9546 944.712 99.8484 955.85C107.582 985.424 113.703 1015.18 120.719 1044.91C126.097 1067.39 134.958 1092.53 130.886 1114.09L130.809 1114.53H130.784Z" fill="#50C134"/>
<path d="M682.392 323.345C649.357 313.206 595.938 260.714 616.681 223.766C623.211 212.064 634.709 203.589 645.49 196.086C659.114 186.792 673.02 179.801 688.948 171.684C707.54 162.108 727.208 154.119 747.874 151.251C754.455 150.201 761.497 149.484 767.848 149.024C777.477 148.076 788.873 148.281 794.43 140.369C799.065 133.455 798.374 120.32 803.803 109.796C810.256 95.5083 845.75 74.9727 856.352 78.5319C865.366 82.7824 862.575 95.329 862.984 107.005C862.831 116.146 863.215 124.084 864.367 134.633C865.699 152.122 869.976 170.02 867.671 186.996C865.494 201.335 853.842 210.016 843.496 218.824C818.041 239.692 787.055 262.737 760.038 283.785C750.332 291.236 740.037 299.225 728.565 308.033C715.376 318.531 700.6 328.518 682.905 323.448L682.444 323.32L682.392 323.345Z" fill="#50C134"/>
<path d="M1972.4 1709.9C1956.17 1720.99 1934.63 1735.66 1917.24 1747.13C1906.54 1753.48 1898.06 1760.81 1887.87 1761.45C1868.53 1758.53 1863.98 1649.53 1862.72 1617.42C1862.67 1611.48 1863.16 1604.97 1865.18 1599.83C1874.86 1577.29 1905.62 1576.32 1926.87 1571.15C1946.15 1568.49 1971.12 1550.13 1989.84 1558.86C1998.17 1562.93 1999.01 1578.37 1998.78 1590.69C1998.7 1603.21 1998.55 1616.6 1998.45 1629.38C1997.35 1663.12 2003.98 1688.4 1972.76 1709.65L1972.35 1709.93L1972.4 1709.9Z" fill="#50C134"/>
<path d="M195.01 572.588C170.298 583.01 143.946 573.203 118.696 569.311C106.583 567.262 93.1645 565.726 82.076 564.267C71.6789 562.858 63.3817 561.604 59.4636 557.456C48.1701 542.502 82.793 529.034 93.7791 523.989C143.793 501.482 181.258 469.475 213.295 450.988C227.507 442.999 244.896 433.909 260.133 425.69C282.515 413.86 298.674 403.669 309.634 407.229C322.106 411.889 324.999 426.996 325.588 439.184C327.509 469.066 312.195 483.149 289.992 499.946C256.727 524.04 232.988 555.125 195.471 572.409L195.01 572.588Z" fill="#50C134"/>
<path d="M77.6711 1601.11C61.7169 1621.08 46.531 1641.61 35.1095 1664.76C16.5177 1701.92 -0.332828 1688.96 1.86951 1652.32C3.07312 1619.18 1.33173 1586.31 0.998821 1553.25C0.435431 1520.78 1.05004 1489.21 1.20369 1456.79C1.43417 1437.1 -0.947436 1413.16 0.768343 1394.73C2.76582 1372.4 16.5433 1380.57 26.1209 1393.55C35.212 1406.25 44.6615 1421.74 53.4197 1435.13C61.1791 1447.24 69.0922 1458.38 77.9272 1469.62C85.5585 1479.48 96.4678 1493.41 104.816 1504.22C109.247 1510.05 113.959 1516.12 116.75 1522.78C128.018 1548.67 92.2424 1580.42 78.004 1600.7L77.6711 1601.11Z" fill="#50C134"/>
<path d="M1990.3 1062.34C1972.12 1054.66 1965.51 1036.41 1952.3 1021.89C1945.97 1014.26 1939.14 1007.04 1931.99 1000.07C1925.23 993.439 1918.39 987.524 1912.15 980.969C1886.82 956.823 1898.65 923.613 1908.61 895.089C1914.55 878.881 1920.21 862.365 1932.12 850.305C1944.77 837.758 1967.9 824.571 1985.92 827.593C2002.6 831.971 2001.37 853.429 2000.93 867.512C1999.98 892.246 2000.03 917.237 2000.55 941.742C2001.19 967.501 2002.06 993.337 2003.44 1018.94C2003.47 1030.82 2010.48 1066.98 1990.64 1062.39L1990.3 1062.29V1062.34Z" fill="#50C134"/>
<path d="M1990.07 802.653C1978.96 810.668 1962.8 814.892 1948.87 815.891C1929.92 817.555 1921.93 805.495 1918.16 789.697C1915.19 778.686 1912.3 766.677 1909.41 755.488C1906.49 743.837 1902.88 731.035 1906.05 720.562C1908.33 712.215 1915.96 703.867 1923.31 696.391C1934.45 684.996 1946.41 675.369 1959.45 665.203C1971.05 657.009 1984.72 643.643 1997.63 647.817C2014.79 655.806 2003.29 690.655 2002.75 705.89C2000.88 722.995 2000.29 740.201 2000.44 757.383C2000.52 774.999 2003.65 791.873 1990.46 802.371L1990.07 802.653Z" fill="#50C134"/>
</g>
<defs>
<clipPath id="clip0_11_4946">
<rect width="2007" height="2268" fill="white"/>
</clipPath>
</defs>
</svg>
