<svg width="2024" height="1923" viewBox="0 0 2024 1923" fill="none" xmlns="http://www.w3.org/2000/svg">
<path opacity="0.3" d="M628.393 733.306C609.473 703.886 476.799 608.73 452.52 583.051C448.091 578.289 443.401 573.767 438.511 569.487C423.622 555.587 407.09 547.38 412.29 528.694C417.934 512.493 436.022 505.878 452.52 509.749C462.107 512.159 472.701 515.082 480.034 521.697C505.298 544.183 580.894 593.126 658.747 665.069C700.536 716.397 718.965 756.873 774.477 775.043C796.893 783.395 819.291 790.317 841.723 798.654C870.533 809.182 898.168 821.812 927.536 830.292C952.149 837.592 978.909 841.687 1004.84 839.793C1018.96 838.864 1031.84 836.468 1045.1 833.853C1061.89 830.166 1083.32 826.93 1090.22 809.245C1101.35 773.915 1043.93 726.856 1013.83 716.397C989.506 706.878 962.826 706.384 937.604 700.094C914.728 694.786 893.276 684.104 875.132 669.183C852.865 650.785 833.105 629.245 808.631 613.595C773.081 589.973 731.968 576.635 694.998 556.455C681.994 549.5 669.167 542.05 656.566 534.484C646.138 527.876 634.346 521.193 630.503 509.749C626.674 492.84 643.363 480.934 660.306 479.578C674.615 478.469 687.351 483.653 700.536 490.412C749.006 516.76 801.037 536.617 846.336 569.487C876.672 589.82 900.237 620.039 933.369 635.969C956.616 647.294 983.575 648.586 1008.87 653.151C1053.27 659.83 1093.44 688.788 1119.94 722.792C1134.23 740.437 1144.91 759.888 1153.17 781.166C1163.13 806.571 1171.99 833.625 1189.46 855.035C1199.61 867.929 1211.59 879.945 1222.86 892.134C1254.56 927.274 1289.58 960.296 1331.73 917.199C1362.63 883.069 1364 832.992 1346.61 792.533C1332.15 756.819 1316.72 718.534 1290.24 689.211C1260.49 653.228 1219.35 632.287 1182.62 604.389C1149.39 578.795 1119.1 549.951 1086.13 524.054C1052.84 497.546 1012.61 482.643 972.673 470.188C934.034 458.135 892.791 447.838 858.18 426.126C836.107 411.616 804.469 387.238 797.479 362.386C792.825 344.577 807.514 323.302 826.413 323.192C840.966 323.728 850.353 337.736 859.352 348.004C907.136 407.872 970.202 407.396 1035.32 434.196C1071.42 447.491 1100.93 468.401 1130.47 492.956C1149.06 507.802 1166.6 522.068 1185.19 537.542C1207.18 556.918 1256.24 593.029 1251.85 537.268C1242.47 479.879 1224.79 423.842 1206.85 368.375C1195.28 335.346 1182.57 297.037 1151.53 277.773C1131.89 266.149 1107.9 269.902 1086.56 274.602C1048.4 281.778 1008.3 291.604 969.917 282.389C953.944 278.368 937.671 273.628 923.087 266.133C903.709 257.285 903.156 238.695 922.276 228.716C947.878 217.007 975.47 232.085 1002.34 231.378C1016.44 231.486 1030.47 229.642 1044.29 226.816C1082.01 219.714 1105.86 203.044 1092.95 162.748C1087.39 143.235 1072.91 122.096 1073.49 102.409C1073.65 91.233 1078.34 80.9749 1087.82 76.5789C1109.19 67.9692 1121.29 94.8486 1129.82 111.851C1144.82 141.101 1155.75 171.998 1172.51 200.335C1188.12 226.88 1208.53 250.145 1224.77 276.119C1242.98 303.184 1253.77 334.97 1268.14 363.565C1291.64 403.598 1313.7 364.028 1321.19 335.829C1331.99 305.024 1328.36 278.59 1305.77 253.565C1286.48 231.228 1268.08 208.113 1253.71 181.921C1235.05 146.669 1230.16 128.66 1238.02 89.0747C1245.28 62.8701 1247.38 31.5354 1269.46 13.364C1282.39 2.61547 1306.47 -3.17702 1322.05 1.81061C1342.62 10.2487 1318.66 37.5561 1312.13 49.5492C1303.87 62.6296 1296.61 75.8185 1290.38 90.1013C1271.34 135.075 1290.96 160.318 1322.68 197.988C1353.1 232.1 1399.56 270.266 1448.09 254.868C1452.74 253.043 1456.84 250.518 1460.4 247.248C1472.19 237.879 1477.42 213.681 1491.83 217.367C1506.01 222.158 1513.47 236.397 1521.75 250.216C1526.82 259.388 1531.01 269.37 1534.52 279.197C1538.9 291.591 1544.08 308.433 1555.98 314.508C1567.61 322.268 1588.66 320.791 1592.4 336.816C1592.52 386.376 1488.55 406.24 1507.31 547.973C1514.7 601.192 1516.11 656.981 1538.61 706.488C1553.26 739.006 1583.45 746.767 1597.72 708.856C1608.61 677.992 1610.29 644.311 1615.36 612.19C1617.94 593.501 1620.96 575.428 1626.99 557.908C1634.39 535.579 1646.38 513.826 1656.8 492.585C1662.3 481.608 1666.32 469.814 1672.38 459.254C1683.06 440.664 1714.94 429.493 1738.72 447.767C1762.5 466.042 1750.04 511.084 1732.09 524.051C1699.9 546.266 1683.92 573.486 1675.52 611.4C1672.31 625.366 1670.3 639.682 1668.77 653.861C1667.54 665.588 1666.31 677.048 1668.15 688.374C1673.86 725.39 1718.44 711.816 1745.42 706.103C1780.59 698.169 1814.31 681.156 1840.56 656.046C1848.26 649.405 1856.42 641.952 1866.67 640.589C1882.12 638.289 1891.1 654.871 1886.23 669.33C1877.59 693.679 1852.33 710.099 1832.11 724.853C1798.86 747.587 1759.23 755.627 1720.52 763.848C1689.02 770.37 1657.33 780.466 1629.19 796.337C1585.32 820.199 1550.44 858.193 1528.02 902.521C1509.67 938.057 1478.91 1019.53 1515.51 1050.44C1540.9 1067.87 1575.94 1047.98 1602.04 1039.07C1632.79 1026.71 1663.75 1015.39 1695.61 1006.4C1762.39 988.271 1813.67 972.787 1854.47 911.505C1888.96 861.432 1884.37 800.04 1942.99 766.387C1956.53 757.879 1973.49 753.319 1988.58 760.442C2003.93 766.902 2022.74 784.883 2023.65 799.075C2023.86 805.178 2016.21 808.915 2009.87 810.573C2000.58 813.438 1986.9 815.202 1975.54 819.957C1970.7 821.993 1966.03 824.556 1961.81 827.672C1931.16 850.283 1935.76 893.676 1916.06 923.106C1904.21 941.693 1885.41 955.833 1872.42 973.475C1859.24 989.538 1850.54 1008.45 1834.71 1021.95C1805.42 1047.85 1744.12 1031.08 1738.4 1067.59C1736.05 1088.3 1746.65 1118.43 1711.68 1111.65C1683.32 1102.7 1670.28 1085.23 1636.03 1089.55C1591.08 1096.65 1546.73 1119.6 1517.42 1154.41C1498.51 1176.99 1492.04 1206.6 1483.09 1234.06C1478.76 1248.18 1471.72 1261.91 1470.38 1276.63C1468.35 1290.05 1475.27 1301.75 1484.72 1310.28C1496.49 1321.05 1500.79 1328.03 1487.07 1343.15C1472.13 1359.78 1451.41 1373.99 1429.6 1380.12C1402.76 1388.99 1335.49 1379.34 1334.74 1420.12C1336.41 1439.4 1354.25 1465.18 1333.1 1479.67C1310.32 1492.49 1291.33 1469.98 1272.06 1459.55C1250.41 1447.6 1233.55 1459.94 1229.95 1482.73C1224.87 1507.63 1232.24 1535.48 1228.42 1559.67C1225.16 1579.65 1207.04 1611.18 1184.99 1608.87C1163.48 1600.45 1170.32 1527.79 1168.44 1506.24C1167.55 1485.61 1165.98 1464.67 1160.87 1444.65C1151.02 1403.39 1113.93 1377.86 1095.05 1341.1C1081.93 1317.71 1076.73 1290.73 1066.77 1266.19C1058.85 1246.17 1039.31 1233.56 1018.8 1244.72C1002.88 1252.91 992.292 1269.52 983.878 1285.13C967.546 1316.14 948.752 1346.33 936.607 1379.34C925.756 1408.9 914.619 1440.02 909.369 1471.55C902.945 1509.22 917.657 1529.1 956.66 1534.13C1012.17 1542.18 1067.94 1557.95 1107.84 1599.74C1119.78 1612.2 1133.49 1626.52 1136.06 1643.89C1138.68 1660.6 1125.24 1676.01 1108.84 1669.82C1096.82 1665.19 1089.94 1654.66 1079.78 1643.65C1057.54 1617.91 1027.07 1601.13 994.552 1590.99C960.483 1579.69 903.341 1569.13 898.949 1619.09C897.975 1631.16 900.613 1645.06 903.477 1657.37C910.548 1685.83 918.355 1713.96 920.476 1743.19C922.35 1767.59 919.572 1791.67 915.262 1815.59C910.56 1842.05 905.649 1869.71 888.466 1890.93C880.207 1901.85 867.194 1915.56 855.137 1916.53C838.089 1915.58 848.125 1868.42 849.002 1856.41C855.666 1802.92 879.349 1743.36 850.504 1692.35C833.532 1666.6 808.902 1694.07 795.59 1711.47C773.636 1738.08 755.171 1766.83 741.753 1798.74C729.973 1826.54 722.717 1856.51 720.638 1886.64C719.123 1902.51 719.168 1936.21 695.185 1915.71C681.766 1904.13 666.016 1887.23 658.011 1873.22C642.55 1845.92 667.123 1821.24 680.956 1798.67C688.187 1787.19 694.579 1775.15 701.18 1763.35C714.616 1739.42 728.04 1715.39 745.083 1693.79C763.614 1668.99 787.328 1647.84 805.124 1622.6C819.354 1602.86 828.771 1579.97 835.193 1556.61C841.6 1533.24 845.182 1509.83 849.388 1486.12C851.985 1466.63 863.096 1436.86 847.247 1421.88C824.403 1405.58 783.833 1434.49 762.307 1446.37C732.758 1465.14 704.65 1482.16 677.6 1504.17C640.724 1534.47 605.075 1569.47 582.705 1612.34C567.365 1639.27 558.664 1670.72 543.078 1697.15C532.939 1715.64 512.334 1721.08 501.416 1701.73C487.34 1676.21 518.329 1647.33 505.13 1621.85C489.116 1593.16 450.312 1623.73 427.879 1613.59C408.5 1601.82 422.127 1576 428.952 1559.71C445.28 1526.96 442.402 1484.27 395.802 1500.7C371.22 1510.24 338.037 1528.39 319.094 1501.73C309.012 1484.5 325.479 1472.29 343.086 1464.24C356.089 1458.06 369.075 1452.66 381.467 1445.72C422.966 1422.26 460.316 1388.99 484.279 1347.43C496.372 1324.4 489.051 1307.99 465.957 1298.6C450.323 1292.16 433.909 1287.43 417.954 1281.53C369.416 1264.07 318.256 1253.2 266.76 1256.34C241.51 1257.67 216.422 1261.8 192.776 1270.75C173.984 1277.51 154.518 1290.06 134.325 1287.74C120.545 1286.41 107.178 1276.17 110.271 1263.03C111.683 1252.1 127.975 1242.13 139.609 1236.75C164.584 1224.66 189.734 1216.16 215.884 1209.97C243.589 1203.41 272.037 1201.14 300.537 1203.88C340.853 1207.59 381.784 1215.64 420.117 1227.49C447.597 1236.05 473.553 1249.01 502.149 1253.53C527.756 1257.42 555.763 1254.08 579.055 1243.13C603.653 1230.3 626.758 1209.43 646.167 1188.71C674.941 1158.36 639.455 1138.36 610.934 1131C590.766 1125.53 570.401 1126.86 549.583 1130.65C460.638 1150.38 437.862 1157.36 344.735 1139.51C321.651 1135.39 298.834 1129.42 275.776 1124.34C241.725 1116.63 205.764 1113.18 171.101 1116.81C135.772 1120.58 103.351 1134.18 73.3538 1153.5C61.0343 1161.31 48.1647 1170.22 33.4099 1171.47C13.4291 1174.08 -9.291 1151.97 3.9358 1132.91C10.2341 1123.03 24.9686 1113.85 28.6586 1102.91C35.9316 1082.41 9.69188 1045.34 48.1509 1047.68C63.6049 1048.44 79.4514 1054.69 96.4343 1057.15C115.303 1059.96 134.506 1059.72 153.654 1059.33C204.022 1057.94 252.165 1061.91 301.212 1072.6C339.182 1079.76 376.528 1087.52 415.441 1089.17C438.746 1089.99 461.659 1087.13 484.582 1083.3C503.819 1080.08 523.373 1076.45 542.515 1072.89C554.551 1070.23 569.802 1066.93 575.861 1055.32C592.865 1018.15 483.858 951.315 453.575 940C402.522 916.384 345.604 926.582 291.462 924.051C270.823 922.593 249.477 918.591 229.213 915.736C216.076 913.33 191.819 910.914 198.17 894.697C212.584 863.341 248.558 852.238 282.6 858.689C303.556 861.512 329.312 864.872 345.417 853.773C359.092 844.39 360.316 825.768 355.519 810.922C352.104 800.109 346.037 788.145 344.401 777.959C338.767 747.135 370.768 733.44 389.25 759.889C410.323 789.622 417.084 826.763 438.511 856.291C487.194 922.292 565.839 916.38 618.772 992.758C658.943 1046.3 662.321 1113.92 749.343 1093.27C804.537 1077.88 842.274 1048.38 825.379 986.836C819.2 960.668 812.402 934.615 802.817 909.132C794.542 886.031 783.296 863.006 763.642 847.752C745.043 833.189 722.784 825.928 703.589 812.815C674.012 791.996 648.54 763.015 628.645 733.647L628.424 733.307L628.393 733.306ZM1266.95 1261.56C1283.31 1324.11 1387.5 1360.28 1422.14 1293.8C1435.96 1261.36 1401.22 1262.75 1379.41 1260.35C1370.79 1259.22 1362.28 1257.06 1353.96 1254.21C1339.95 1249.26 1325.65 1243.4 1311.95 1237.62C1305.58 1234.98 1298.99 1232.26 1292.21 1231.13C1273 1227.33 1263.05 1243.82 1266.87 1261.15L1266.96 1261.58L1266.95 1261.56ZM1137.2 1168.24C1110.48 1191.79 1109.46 1229.26 1120.94 1261.14C1126.87 1279.61 1133.61 1296.77 1145.33 1312.71C1167.81 1344.92 1196.62 1359.88 1231.17 1376.83C1242.89 1382.45 1255.61 1389.55 1268.66 1390.23C1284.13 1390.98 1290.77 1379.73 1285.69 1364.31C1279.73 1345.83 1265.04 1330.81 1254.55 1314.62C1244.65 1299.91 1237.41 1283.39 1233.18 1266.34C1229.94 1253.62 1227.71 1240.81 1226.53 1227.77C1224.82 1210.42 1224.96 1191.01 1216.43 1177.22C1200.08 1151.61 1159.64 1147.81 1137.53 1167.98L1137.21 1168.26L1137.2 1168.24ZM1379.34 954.551C1367.09 968.047 1359.67 985.993 1357.36 1003.75C1355.65 1016.46 1356.14 1029.47 1355.23 1042.24C1354.23 1059.42 1348.83 1075.6 1341.07 1091.04C1330.52 1113.67 1313.87 1138.49 1317.77 1164.1C1322.07 1192.32 1353.48 1213.27 1381.33 1206.93C1404.32 1201.99 1421.34 1181.98 1429.66 1160.73C1446.04 1120.02 1439.06 1074.37 1434.51 1031.92C1432.19 1008.75 1432.08 984.445 1423.73 962.471C1415.15 940.346 1395.9 936.435 1379.63 954.281L1379.32 954.566L1379.34 954.551ZM1150.33 1023.13C1120.15 1026.96 1105.25 1048.24 1128.44 1072.76C1147.09 1091.88 1172.53 1103.79 1198.25 1109.77C1221.84 1115 1248.51 1114.87 1269.95 1101.8C1284.24 1093.05 1289.15 1076.71 1296.14 1062.53C1301.95 1048.16 1318.23 1032.23 1321.38 1019.61C1324.97 991.623 1272.01 1010.33 1257.45 1012.51C1242.23 1016.11 1226.39 1018.02 1210.28 1019.4C1190.09 1021.38 1169.46 1020.13 1150.75 1023.07L1150.33 1023.13ZM1458.43 722.48C1404.2 738.559 1407 800.109 1416.87 845.662C1422.13 871.256 1433.72 932.165 1468.09 893.913C1477.64 881.996 1484.53 867.09 1492.47 853.989C1502.29 836.853 1513.62 820.129 1514.63 799.958C1516.45 771.027 1496.93 713.371 1458.81 722.371L1458.41 722.464L1458.43 722.48ZM531.897 1382.27C516.851 1408.93 500.674 1435.61 495.244 1466.22C492.75 1478.21 490.833 1490.66 489.79 1502.52C489.023 1512.32 489.006 1522.6 493.081 1531.58C501.625 1550.6 524.444 1552.86 543.423 1546.15C583.961 1532.63 607.223 1494.21 637.494 1466.69C662.873 1443.71 690.947 1424.55 719.855 1405.71C745.863 1388.93 773.911 1373.68 803.059 1363.51C829.881 1353.75 859.765 1347.66 882.468 1329.21C914.165 1302.85 925.614 1261.56 938.288 1223.91C947.501 1194.83 949.033 1163.54 948.108 1133.16C948.084 1119.45 945.658 1096.94 931.756 1093.7C918.694 1090.63 905.016 1098.26 892.754 1102.52C863.244 1113.45 834.339 1126.72 808.111 1144.24C788.908 1156.89 769.154 1168.47 750.957 1182.57C729.844 1198.75 712.903 1219.8 693.679 1238.07C683.947 1247.45 673.835 1256.52 663.056 1264.66C611.663 1301.26 561.67 1320.98 532.086 1381.88L531.882 1382.25L531.897 1382.27ZM1001.54 1091.55C993.241 1108.83 985.876 1131.46 989.548 1150.56C992.671 1166.7 1008.94 1176.33 1024.69 1174.53C1040.13 1173.34 1055.42 1163.81 1067.49 1152.91C1084.52 1137.54 1105.21 1115.22 1097.13 1092.53C1091.7 1077.91 1077.26 1068.11 1062.71 1063.84C1038.68 1056.45 1012.66 1068.59 1001.74 1091.15L1001.54 1091.55ZM849.597 886.308C852.539 902.644 859.661 918.219 864.506 934.136C876.106 969.397 889.589 1012.03 928.312 1025.06C953.584 1033.08 981.188 1021.58 1006.77 1017.21C1020.83 1014.77 1034.89 1013.03 1048.78 1009.99C1064.05 1007.01 1078.8 1001.88 1093.76 997.439C1112.07 992.231 1129.87 988.619 1148.7 987.124C1164.06 985.448 1189.41 985.681 1192.8 967.152C1193.84 958.339 1189.04 949.068 1183.44 942.245C1148.61 902.508 1089.4 907.612 1041.35 907.387C1005.22 907.395 967.47 906.155 932.619 896.26C915.368 891.242 898.965 884.061 882.473 876.751C867.924 870.279 846.128 863.226 849.551 885.929L849.599 886.276L849.597 886.308ZM1407.95 301.634C1369.29 314.145 1362.89 346.585 1351.53 381.246C1344.76 400.257 1335.56 417.528 1326.96 435.957C1313.21 465.677 1304.84 498.299 1309.47 530.792C1313.59 558.913 1322.29 585.99 1333.2 612.332C1345.09 637.034 1355.63 666.28 1379.97 680.637C1402.74 693.574 1432.64 683.433 1449.45 664.904C1462.52 651.38 1466.37 633.154 1465.53 614.851C1464.92 584.542 1451.82 556.379 1450.18 526.559C1448.74 498.994 1456.65 471.441 1464.88 445.52C1469.9 429.826 1476.43 415.25 1484.91 400.789C1493.93 385.19 1504.65 368.879 1504.2 350.294C1503.8 325.539 1483.84 304.602 1460.36 298.702C1443.24 294.223 1425.08 295.888 1408.38 301.511L1407.96 301.65L1407.95 301.634Z" fill="#122717"/>
</svg>
