<svg width="1583" height="1809" viewBox="0 0 1583 1809" fill="none" xmlns="http://www.w3.org/2000/svg">
<path d="M798.868 1808.53C774.806 1812.24 756.236 1793.16 737.277 1781.44C704.191 1761.51 666.255 1739.99 632.723 1720.35C597.173 1700.73 567.541 1680.94 532.341 1661.79C512.839 1652.98 497.004 1640.23 478.531 1628.86C441.739 1610.07 409.216 1586.11 373.162 1566.33C319.119 1536 267.094 1504.06 214.545 1471.32C170.205 1446.95 127.669 1418.97 84.0275 1393.88C69.2215 1385.65 53.1347 1376.49 38.6004 1368.45C26.2006 1361.93 11.1229 1351.22 5.10739 1340.39C2.68176 1336.36 2.54593 1332.34 2.50712 1327.92C2.46831 1320.54 2.41009 1307.37 2.33247 1290.27C2.19664 1060.43 -1.93662 900.668 1.12936 694.912C1.16817 665.3 1.32341 558.57 1.40103 505.71C1.94437 478.62 -3.50843 466.259 22.339 448.658C50.7285 429.408 80.2823 414.31 109.332 396.457C161.395 365.622 212.896 335.097 264.688 303.758C295.27 284.818 328.22 266.984 358.724 246.434C368.485 239.603 377.858 232.229 388.201 226.291C396.836 221.246 405.898 217.268 415.018 213.231C442.34 201.433 467.742 186.394 493.317 171.277C559.896 133.204 624.767 90.4535 692.704 54.6894C710.188 43.9 725.11 32.7613 743.972 24.6498C752.995 20.3418 762.406 14.9665 770.207 10.154C778.221 5.30261 784.276 1.09164 790.466 0.237805C797.685 -0.887708 804.205 2.15894 810.764 5.65191C819.263 10.2704 827.801 15.4322 836.553 20.1283C861.178 33.5375 880.66 45.7047 904.781 59.2496C938.215 78.4998 970.855 96.6244 1002.81 117.097C1016.48 126.256 1031.86 131.942 1045.72 141.567C1054.32 147.408 1061.98 153.87 1070.36 159.595C1102.98 180.165 1137.62 196.562 1170.65 216.395C1212.49 240.36 1252.83 265.762 1293.52 291.668C1326.78 312.801 1364.5 329.78 1395.9 352.407C1411.1 363.682 1435.25 375.305 1452.8 385.901C1465.31 393.43 1475.07 400.688 1487.75 408.799C1505.11 419.899 1524.09 428.496 1541.73 439.149C1554.36 446.95 1566.61 455.256 1574.17 467.694C1585.47 484.674 1580.19 505.496 1581.37 525.232C1580.71 616.573 1581.86 747.889 1581.78 804.262C1582.11 847.924 1583.8 892.653 1582.54 936.335C1580.81 1008.52 1581.8 1205.47 1581.12 1323.78C1581.02 1333.78 1582.46 1340.61 1572.54 1348.93C1563.33 1357.47 1548.91 1367.1 1536.99 1373.69C1513.67 1387.28 1488.02 1403.71 1463.31 1416.37C1438.34 1429.43 1414.69 1445.71 1389.92 1458.88C1369.01 1469.34 1350.98 1483.16 1331.59 1497.02C1285.37 1527.35 1234.37 1552.22 1188.21 1583.23C1160.23 1602.21 1128.93 1616.26 1099.96 1633.77C1090.06 1640.4 1082.9 1646.73 1073.91 1651.93C1067.55 1655.71 1060.12 1658.88 1053.87 1662.37C988.397 1699.22 922.051 1743.81 855.764 1777.19C836.553 1786.08 820.66 1804.36 799.276 1808.53L798.907 1808.59L798.868 1808.53ZM855.143 231.531C865.389 226.699 875.44 220.974 885.686 216.201C899.211 210.243 910.078 202.908 921.197 192.759C939.38 176.846 964.296 144.517 940.699 123.54C925.951 111.256 906.954 104.891 890.731 94.8197C877.381 86.9799 865.621 76.7921 852.562 68.9135C843.771 63.5382 834.651 58.7451 825.55 53.8937C798.732 39.1262 790.873 37.6514 763.377 51.08C742.982 61.8111 712.4 74.1142 708.519 98.4485C705.375 116.981 708.538 136.192 711.895 154.491C715.679 182.338 717.697 194.758 744.321 207.759C759.554 215.618 777.6 223.71 794.424 229.94C814.994 237.973 835.253 241.719 854.832 231.705L855.182 231.55L855.143 231.531ZM549.922 286.991C563.331 290.814 574.527 283.266 584.521 275.309C593.214 268.634 601.034 262.599 608.37 256.932C628.842 240.981 652.322 223.516 671.61 207.701C679.45 201.006 688.26 194.447 689.929 183.58C691.675 170.714 688.454 157.13 687.425 143.896C686.552 135.92 686.261 129.885 686.378 122.958C686.067 114.05 688.182 104.678 681.352 101.379C673.299 98.662 646.403 114.283 641.533 125.073C637.419 133.029 637.962 143.003 634.43 148.243C628.279 156.839 609.398 153.89 599.133 156.49C583.473 158.663 568.57 164.699 554.482 171.976C542.431 178.127 531.894 183.425 521.552 190.469C513.382 196.174 504.669 202.578 499.721 211.446C484.003 239.468 524.521 279.229 549.514 286.914L549.863 287.011L549.922 286.991ZM1264.68 408.1C1274.76 401.677 1278.48 384.348 1282.65 371.89C1286.11 359.975 1292.73 347.109 1288.63 334.67C1284.03 321.785 1268.6 315.129 1257.21 308.609C1227.49 293.007 1194.38 273.505 1165.12 254.565C1128.89 229.881 1089.19 210.942 1051.6 187.286C1039.33 179.796 1024.94 174.033 1013.08 167.648C1004.76 163.282 997.129 157.072 988.533 153.385C976.249 147.816 965.712 156.199 967.536 169.453C968.08 175.449 970.525 181.737 973.377 188.179C980.266 202.442 985.758 220.683 988.824 234.189C993.966 258.446 1005.43 279.753 1015.43 302.826C1023.81 320.369 1031.03 341.792 1044.01 355.784C1054.3 365.836 1069.99 369.193 1083.99 373.074C1108.28 379.109 1129.39 383.98 1157.39 390.771C1177.38 395.526 1195 399.873 1214.46 404.491C1230.92 407.383 1249.94 416.697 1264.39 408.314L1264.67 408.139L1264.68 408.1ZM895.796 450.443C921.624 450.443 950.033 450.521 976.346 448.192C996.838 446.329 1006.07 427.273 1014.92 410.623C1020.78 398.805 1028.33 385.94 1026.26 372.395C1024.82 362.032 1018.07 350.796 1012.98 341.152C1006.07 328.364 1000.78 316.41 994.509 302.904C989.91 292.929 985.059 282.431 980.479 272.534C974.697 259.63 970.311 252.159 966.857 240.904C963.733 231.084 963.558 219.616 959.25 210.301C949.354 192.312 931.831 211.466 921.741 219.849C907.575 231.861 889.179 237.061 873.209 246.395C859.334 253.634 846.1 262.133 839.483 276.551C831.507 294.385 827.297 313.538 823.047 332.633C819.845 348.293 817.516 364.186 811.87 379.089C806.242 393.799 799.761 408.741 798.247 424.595C796.268 448.891 806.3 449.686 826.171 449.764C848.778 449.939 873.306 450.249 895.447 450.424H895.777L895.796 450.443ZM719.696 481.666C729.922 489.681 740.188 483.685 750.162 475.495C760.369 467.151 768.577 457.41 772.4 445.456C783.558 406.684 793.92 367.834 803.972 328.732C806.494 318.486 809.366 307.212 812.064 297.179C813.868 290.154 815.809 282.916 815.266 275.678C814.877 263.2 804.496 255.244 794.133 250.102C774.166 239.662 753.849 230.425 733.396 220.838C718.26 213.406 705.045 207.798 689.211 217.714C659.87 234.985 635.09 259.572 607.38 278.026C584.327 293.162 563.408 312.898 582.658 340.434C588.421 348.371 596.921 355.415 604.411 362.013C612.639 369.037 620.207 376.664 627.6 384.271C638.622 396.108 651.837 406.432 663.363 417.92C676.481 431.523 688.958 446.892 701.203 461.485C706.966 468.335 712.341 476.213 719.424 481.511L719.696 481.705V481.666ZM414.475 436.646C433.938 443.36 444.591 430.3 457.224 417.473C470.206 404.278 484.857 389.122 497.315 377.091C509.21 365.467 521.028 355.007 532.729 343.733C540.549 336.281 549.766 325.472 548.156 314.353C545.226 299.915 524.462 292.425 513.033 283.285C503.156 276.241 496.015 267.373 489.98 257.126C484.294 247.851 480.122 238.497 474.495 234.015C462.735 224.914 447.968 236.033 436.868 241.738C423.44 249.617 409.643 255.768 396.06 263.802C386.357 269.585 376.946 276.183 367.36 282.179C345.665 296.073 323.951 304.398 303.847 319.67C288.925 331.352 290.458 346.682 296.57 362.808C303.731 387.414 316.383 395.021 339.999 403.598C355.775 409.963 371.318 415.804 386.454 423.353C395.477 427.7 404.656 433.541 414.126 436.529L414.494 436.646H414.475ZM180.625 475.631C209.073 462.513 227.003 438.994 252.249 420.714C273.536 404.86 283.123 392.77 278.019 365.118C270.975 339.27 253.472 351.747 229.623 364.438C218.077 370.667 204.882 377.556 194.131 383.611C169.409 397.971 137.119 424.964 98.7558 441.09C90.6252 444.796 69.823 454.169 77.5656 464.318C80.5346 467.462 86.8218 468.413 94.7002 469.48C103.103 470.586 113.271 471.75 122.449 473.303C141.583 476.272 161.55 483.704 180.276 475.787L180.625 475.651V475.631ZM697.865 622.996C703.532 611.877 705.86 599.108 708.266 586.863C710.731 573.085 712.943 558.318 715.272 544.191C718.609 524.727 721.462 510.406 706.404 494.765C701.979 489.933 696.895 485.412 692.16 480.793C676.733 465.89 665.129 449.647 651.584 435.462C636.002 419.453 622.263 406.859 606.06 390.112C599.928 383.941 593.525 377.459 587.373 371.23C574.023 357.899 564.883 346.799 548.874 353.533C536.726 359.878 525.568 375.247 515.226 385.493C499.139 402.686 482.354 420.753 466.344 437.422C443.679 461.504 445.135 469.616 454.779 500.878C461.28 523.796 469.158 551.177 475.426 573.24C478.899 585.311 480.704 592.491 487.457 600.253C493.764 607.627 504.165 614.632 513.363 619.367C536.105 630.777 558.344 643.721 581.959 653.133C593.835 657.79 606.138 661.166 618.945 659.73C634.023 658.003 649.314 652.977 664.12 647.136C677.354 641.664 691.384 635.338 697.691 623.268L697.846 622.977L697.865 622.996ZM1547.8 493.29C1547.36 484.073 1537.46 476.893 1530.26 471.595C1521.9 465.754 1513.79 459.602 1505.36 453.761C1484.12 439.052 1461.49 427.04 1438.61 415.106C1425.61 408.062 1412.4 402.046 1400.89 394.439C1393.81 389.549 1389.96 383.844 1382.96 379.458C1373.92 373.928 1363.5 371.327 1353.89 366.068C1344.54 361.372 1335.12 353.649 1325.62 351.65C1307.98 347.478 1300.45 365.855 1296.72 379.73C1293.6 390.868 1289.7 402.182 1286.88 413.049C1280.54 434.802 1289.19 453.529 1297.19 473.303C1304.06 489.661 1309.45 509.843 1324.45 518.614C1333.44 524.494 1344.56 527.871 1354.34 531.674C1366.83 536.584 1380.69 541.707 1395.05 546.907C1404.56 550.381 1414.76 554.107 1423.09 557.153C1439.48 563.421 1453.38 568.816 1470.32 560.336C1485.57 552.574 1497.23 542.658 1512.1 531.907C1522.69 522.98 1547.84 506.758 1547.84 493.523V493.271L1547.8 493.29ZM1223.18 583.312C1241.75 566.817 1260.55 551.662 1279.01 535.536C1295.62 520.691 1290.14 503.342 1283.26 485.101C1275.28 462.533 1268.78 436.685 1243.18 428.903C1227.97 423.974 1211.75 421.645 1196.63 418.385C1170.42 413.029 1141.95 407.809 1116.37 401.503C1100.95 397.738 1085.36 393.294 1070.81 390.48C1064.91 389.335 1058.29 388.54 1053.15 390.81C1043.7 394.905 1037.94 406.548 1032.85 415.901C1029.55 422.131 1026.37 427.991 1024.22 434.356C1018.09 452.228 1025.71 467.733 1032.15 485.8C1036.54 498.239 1040.5 511.318 1042.87 524.242C1045.08 537.438 1048.69 549.896 1058.74 559.113C1082.41 580.265 1111.7 596.236 1134.65 616.515C1157.76 638.598 1165.66 635.609 1187.39 613.08C1198.71 602.31 1210.43 594.315 1222.85 583.564L1223.16 583.312H1223.18ZM378.614 654.045C396.991 643.216 417.269 631.631 436.17 620.687C460.406 608.248 460.484 597.42 452.955 572.62C441.351 539.611 435.956 504.972 422.431 472.74C418.239 464.143 412.767 459.389 404.287 454.227C393.207 447.493 380.458 441.769 368.369 436.82C353.194 430.902 341.784 426.38 327.987 420.617C307.689 411.788 290.846 413.961 273.362 427.545C258.187 438.974 243.11 453.296 227.605 466.297C213.983 477.979 199.895 488.594 199.08 507.805C198.071 524.087 202.301 540.271 205.677 555.834C208.355 566.934 210.975 576.248 214.507 588.59C216.563 595.751 218.64 603.028 220.716 610.227C223.491 619.445 225.936 629.147 231.738 636.463C240.005 646.399 252.54 650.222 265.697 655.558C280.154 661.089 294.63 667.512 308.698 673.76C319.313 678.204 327.055 681.212 335.904 678.845C350.827 673.799 365.128 661.516 378.362 654.219L378.634 654.064L378.614 654.045ZM832.924 698.58C856.753 714.163 870.531 712.261 890.285 690.798C904.509 677.001 919.548 662.544 933.888 648.708C945.065 637.88 952.769 631.263 964.082 621.366C983.371 603.552 1013.22 579.276 1021.44 553.816C1025.6 539.708 1021.37 521.448 1017.81 506.001C1012.73 483.277 1001.61 470.081 977.2 470.469C938.798 471.187 886.055 471.498 845.557 471.964C819.729 472.759 800.324 470.198 777.406 480.56C749.153 495.192 742.031 520.419 737.587 549.682C735.841 559.21 733.842 568.7 731.999 578.208C729.398 596.624 719.89 628.798 733.978 643.255C741.895 651.813 755.867 657.751 767.646 663.903C789.961 674.789 812.335 684.666 832.594 698.386L832.924 698.58ZM201.253 635.299C205.386 621.832 199.584 607.569 197.217 594.121C193.278 576.268 189.591 557.153 185.438 539.048C182.721 527.541 180.509 514.19 171.408 505.981C163.51 498.724 150.897 496.744 138.982 494.377C126.544 491.971 114.804 489.526 102.21 487.391C94.3897 486.052 86.259 484.635 78.3806 483.335C60.431 479.998 44.4801 479.532 36.7181 495.871C34.1372 503.517 35.2821 508.621 34.9911 518.867C34.9911 523.854 34.9911 528.724 34.9911 533.867C34.9911 571.805 34.9523 631.981 34.9328 655.752C34.4671 666.503 36.3688 675.837 44.2472 684.142C54.823 695.378 71.977 702.558 85.8515 709.893C103.083 719.13 118.84 713.464 133.336 701.316C148.433 689.265 161.046 677.35 175.173 664.834C184.39 656.257 196.673 647.466 201.117 635.629L201.234 635.299H201.253ZM1540.74 649.931C1550.73 641.994 1548.37 629.186 1548.31 615.835C1548.17 602.814 1548.64 589.774 1550.05 576.811C1550.48 565.168 1559.19 538.951 1546.17 532.8C1536.39 529.637 1526.01 539.766 1517.24 545.976C1507.36 553.68 1498.3 560.976 1489.86 569.612C1484.29 575.297 1478.53 581.604 1476.78 587.93C1474.38 595.867 1477.11 605.55 1479.32 614.399C1481.52 622.899 1483.71 631.981 1485.96 640.325C1488.83 652.279 1494.87 661.438 1509.23 660.177C1519.78 659.42 1532.05 656.218 1540.45 650.144L1540.74 649.931ZM1356.66 835.815C1374.89 826.947 1390.1 810.918 1406.11 798.46C1420.68 786.312 1435.66 777.075 1444.36 760.406C1452.06 744.959 1452.16 729.823 1456.95 711.95C1460.35 698.793 1466.75 685.889 1468.55 672.266C1470.82 657.732 1465.99 643.585 1462.46 629.477C1458.83 616.224 1455.71 601.708 1445.5 591.85C1431.84 579.237 1412.1 574.463 1395.2 567.302C1378.05 560.84 1363.9 557.018 1348.82 550.827C1339.49 547.101 1330.02 542.696 1320.11 540.872C1301.65 536.642 1286.9 549.915 1274.17 561.481C1259.29 574.541 1244.54 587.93 1229.43 600.136C1207.42 618.261 1180.56 637.783 1177.32 668.327C1175.4 684.957 1177.07 702.422 1178.12 719.15C1179.23 736.323 1179.61 751.673 1192.09 762.56C1198.65 768.498 1206.61 772.825 1213.98 777.754C1235.67 792.502 1255.74 809.715 1277.43 824.269C1289.52 832.05 1302.8 834.709 1317.6 837.212C1330.43 839.463 1344.11 841.481 1356.35 835.99L1356.68 835.834L1356.66 835.815ZM1081.62 793.958C1101.7 785.827 1142.55 773.33 1154.81 757.98C1159.18 751.634 1158.58 744.183 1157.88 736.595C1157.2 730.153 1156.35 723.05 1155.73 716.433C1153.49 700.579 1155.32 682.26 1151.61 667.396C1149.4 659.051 1144.55 652.609 1137.89 646.903C1125.07 636.23 1110.49 625.616 1098.95 614.263C1084.86 601.359 1070.89 585.602 1052.92 577.781C1037.06 571.203 1024.99 585.757 1016.03 597.109C981.217 639.393 938.972 667.163 899.794 710.34C890.343 720.508 882.95 733.684 886.909 747.617C889.49 757.65 894.845 766.848 899.231 776.202C906.779 791.939 914.755 807.444 923.08 822.794C928.591 832.594 935.149 844.004 946.424 847.381C979.994 854.444 1046.59 805.62 1081.35 794.093L1081.64 793.977L1081.62 793.958ZM537.211 903.346C552.386 902.414 553.415 877.44 556.578 865.311C560.303 846.798 563.913 827.995 567.6 809.327C574.43 773.388 585.219 741.621 588.809 705.527C591.41 685.345 581.3 672.441 563.311 664.523C548.602 657.848 536.746 654.083 521.804 647.117C512.528 642.906 503.486 637.86 494.482 632.97C482.218 625.907 471.642 622.065 458.427 629.516C431.823 644.342 405.859 660.254 379.488 675.759C339.455 698.425 342.036 706.866 347.431 749.907C350.516 770.341 355.076 790.988 356.512 811.772C357.366 819.805 357.521 828.654 362.877 834.942C367.088 839.793 373.53 842.413 379.546 844.839C393.75 850.272 410.031 856.462 423.459 861.566C449.268 871.501 474.145 880.564 500.07 891.334C511.772 895.7 524.462 903.113 536.94 903.346H537.231H537.211ZM787.206 1043.84C824.929 1010.93 862.226 979.434 899.949 947.26C915.085 934.88 916.812 917.551 921.566 900.28C924.186 888.966 930.492 878.352 929.386 866.553C927.853 853.066 916.462 842.432 909.011 830.731C898.28 815.517 890.246 800.031 881.766 783.168C875.207 770.943 870.88 757.922 864.127 746.123C857.898 735.179 847.575 727.494 836.63 721.653C826.171 715.851 816.294 710.98 804.942 705.333C784.974 695.359 765.666 686.296 746.009 675.468C738.674 671.432 731.591 666.969 724.586 662.37C716.067 656.625 706.054 651.852 695.731 654.821C685.698 657.596 676.229 663.379 666.274 666.852C651.875 672.868 633.848 674.731 623.078 684.201C608.273 696.698 608.059 719.518 603.169 738.652C595.834 775.891 586.151 811.946 579.961 849.496C577.516 863.701 574.508 879.264 570.84 892.304C569.23 898.708 568.124 905.383 568.453 912.039C569.191 926.865 576.778 940.274 581.727 953.994C586.5 966.006 589.547 978.736 598.357 986.905C605.711 993.755 615.433 997.365 624.689 1001.23C639.165 1006.8 652.943 1012.95 666.584 1019.62C685.194 1028.55 705.53 1034.88 725.168 1041.78C745.019 1048.21 768.868 1059.35 786.915 1044.05L787.167 1043.86L787.206 1043.84ZM303.847 860.285C317.469 850.68 334.934 841.598 335.691 823.881C335.924 820.427 335.691 816.138 335.341 812.334C333.362 791.823 331.344 770.167 329.287 750.082C327.463 735.237 325.969 716.84 318.575 703.004C313.453 693.205 302.566 690.08 292.398 686.122C276.001 680.125 260.05 672.751 244.39 664.97C231.738 658.45 217.068 654.957 204.94 663.922C194.558 671.257 184.623 680.611 174.668 688.722C165.082 696.795 157.301 702.752 148.316 710.301C137.818 719.208 126.233 729.706 125.282 744.28C124.526 759.843 131.473 772.049 134.733 787.69C137.605 799.915 140.38 812.994 142.98 825.142C154.662 878.546 149.151 893.216 211.014 894.613C221.337 895.215 232.282 895.933 241.771 895.778C259.759 895.448 258.847 891.023 274.895 879.167C283.899 872.433 293.951 866.573 303.537 860.499L303.867 860.285H303.847ZM1540.88 847.031C1555.91 850.563 1550.6 822.949 1550.58 814.1C1549.53 794.695 1548.87 775.115 1548.39 755.593C1547.98 737.022 1547.94 718.082 1548.68 699.337C1549.03 688.644 1549.94 672.383 1537.31 669.084C1523.68 666.755 1506.1 676.827 1496.54 686.277C1487.51 695.417 1483.22 707.933 1478.72 720.217C1471.17 741.835 1462.21 766.984 1481.4 785.303C1486.13 790.271 1491.32 794.753 1496.44 799.779C1501.87 805.038 1507.03 810.53 1511.83 816.313C1521.84 827.315 1526.85 841.151 1540.62 846.973L1540.88 847.051V847.031ZM131.647 886.172C134.733 869.833 128.019 850.757 123.944 833.739C118.627 811.209 113.989 788.66 108.128 766.247C105.955 757.805 104.112 748.956 99.7261 741.369C93.4389 730.405 81.6989 724.137 70.8127 718.354C54.3766 709.893 30.101 697.299 32.6431 723.574C32.6819 762.463 32.7983 932.978 32.8371 967.83C32.7595 972.119 33.3804 977.125 37.2808 979.279C49.6418 984.286 64.3314 962.823 72.6949 955.236C82.281 945.242 92.7791 935.598 103.258 925.681C114.629 914.659 128.989 901.425 131.57 886.502L131.628 886.172H131.647ZM1079.83 1047C1098.69 1054.8 1109.89 1030.02 1119.69 1016.98C1129.72 1003.13 1140.14 989.35 1151.28 975.262C1160.44 963.444 1171.48 954.848 1181.94 944.505C1191.47 935.151 1199.35 924.342 1208.22 914.387C1221.88 898.747 1238.12 885.182 1252.89 869.309C1271.92 848.972 1270.27 838.085 1247.69 821.998C1233.85 811.655 1221 802.457 1208.43 793.647C1198.2 786.894 1187.51 777.618 1174.86 776.9C1161.74 776.318 1150.25 784.216 1138.26 789.669C1126.15 795.335 1113.4 799.837 1101 804.669C1069.92 816.604 1040.32 832.147 1010.27 847.342C993.093 856.462 973.61 862.866 958.474 874.335C943.823 885.726 938.138 906.839 938.565 925.72C939.011 938.955 948.966 946.445 959.561 952.189C973.241 959.874 985.137 969.576 996.993 979.745C1013.41 993.833 1029.52 1007.67 1045.84 1021.54C1056.86 1030.43 1066.72 1041.05 1079.54 1046.91L1079.87 1047.04L1079.83 1047ZM1484.91 990.476C1503.73 992.281 1533.85 1002.7 1547.22 986.226C1552.05 978.619 1550.71 968.742 1550.99 959.932C1550.93 945.882 1550.83 925.313 1550.75 911.807C1550.66 904.84 1550.71 897.544 1547.92 891.198C1545.09 884.775 1540.62 880.215 1535.77 874.956C1529.5 868.494 1523.3 861.139 1517.22 853.416C1505.91 839.405 1492.62 821.882 1481.63 809.967C1475.46 803.33 1469.04 795.82 1460.93 791.571C1448.8 785.186 1438.07 795.355 1428.81 803C1422.02 808.434 1416.18 812.82 1407.66 819.32C1401.14 824.308 1394.14 829.663 1388.06 834.301C1381.58 839.386 1375.08 843.558 1370.93 849.651C1364.76 857.821 1369.72 871.812 1372.73 881.786C1379.58 902.531 1386.39 923.275 1393.71 943.825C1397.96 954.77 1401.7 969.499 1409.41 978.115C1419.54 988.962 1434.67 988.303 1449.69 988.419C1461.35 988.477 1473 988.846 1484.54 990.437L1484.93 990.495L1484.91 990.476ZM1248.58 1197.78C1264.67 1193.83 1281.2 1189.61 1297.62 1186.99C1310.6 1184.51 1325.89 1184.63 1336.27 1175.72C1343.66 1169.22 1346.13 1159.4 1348.65 1150.1C1352.28 1136.54 1356.18 1125.46 1359.23 1112.9C1363.44 1095.83 1367.76 1070.29 1372.52 1050.28C1390.74 984.46 1387.11 985.586 1364.64 922.557C1361.48 913.65 1358.26 904.665 1355.11 895.836C1350.67 883.707 1348.57 876.004 1342.52 869.425C1331.67 858.345 1313.6 854.464 1298.74 855.065C1289 855.88 1282.85 863.681 1276.91 871.016C1262.71 888.792 1249.1 901.696 1233.04 918.987C1218.27 935.112 1202.98 950.598 1186.37 964.57C1173.23 976.64 1163.02 990.146 1152.56 1004.06C1142.16 1017.95 1132.93 1030.32 1123.14 1044.5C1114.28 1056.69 1107.06 1068.97 1111.77 1084.32C1116.94 1102.56 1127.45 1124.53 1134.75 1143.78C1140.12 1157.19 1144.78 1168.5 1150.18 1181.56C1161.51 1210.07 1168.3 1224.51 1201.79 1212.26C1218.4 1206.71 1232.43 1201.86 1248.23 1197.88L1248.6 1197.78H1248.58ZM539.598 1021.37C564.184 1012.21 577.768 994.357 567.037 967.81C561.545 953.916 554.967 938.411 543.751 929.33C531.972 920.17 516.953 917.531 502.942 912.02C498.46 910.351 494.055 908.566 489.611 906.781C456.914 894.051 424.585 883.397 391.752 871.463C377.858 866.825 364.662 861.042 354.028 858.733C344.229 856.074 333.304 861.547 325.096 867.679C314.908 874.665 300.859 884.367 290.943 891.198C285.005 895.39 278.582 899.542 274.138 905.131C261.777 921.761 271.906 935.869 280.154 954.595C286.79 968.994 293.912 984.053 300.218 998.141C307.534 1014.09 313.511 1031.6 321.836 1047.72C331.228 1065.77 348.537 1062.49 367.224 1058.92C389.248 1054.75 405.568 1051.64 427.069 1046.77C463.88 1038.12 508.492 1030.1 539.307 1021.43L539.579 1021.33L539.598 1021.37ZM260.923 1179.7C286.441 1166.39 296.163 1120.28 303.148 1094.68C306.137 1082.44 308.194 1073.69 304.061 1061.38C294.086 1031.5 274.953 1004.64 264.261 974.137C260.71 964.958 257.159 955.294 253.394 946.484C246.971 932.008 242.469 920.248 225.257 917.434C207.307 914.271 180.024 913.068 162.889 913.301C150.237 912.932 141.195 919.549 132.423 928.456C117.423 942.991 100.755 959.078 87.0546 972.681C74.4802 985.295 60.3728 998.51 51.8346 1013.47C26.3752 1054.55 65.4375 1088.96 89.4026 1119.06C98.2901 1130.23 106.557 1141.94 114.746 1153.62C126.621 1169.51 139.681 1192.85 162.152 1190.49C185.205 1188.72 222.113 1184.88 243.536 1183.02C249.455 1182.41 255.354 1181.99 260.69 1179.81L260.923 1179.72V1179.7ZM1066.5 1309.33C1115.48 1305.39 1117.07 1296.42 1140.82 1256.6C1159.76 1229.07 1142.03 1217.95 1132.63 1192.43C1122.52 1165.44 1113.56 1136.19 1100.31 1111.08C1093.36 1097.34 1088.35 1082.4 1078.77 1070.7C1071.22 1061.42 1060.89 1054.79 1051.23 1047.88C1036.39 1037.4 1023.85 1024.12 1009.9 1012.89C987.64 995.056 963.558 975.398 941.553 957.681C929.192 946.736 921.76 953.974 910.719 961.698C894.535 973.38 878.603 986.75 865.738 1000.72C852.892 1013.88 838.338 1025.6 823.842 1037.13C816.1 1043.39 808.105 1049.39 801.721 1056.92C792.232 1066.99 791.785 1081.89 792.814 1095.01C793.493 1106.56 794.522 1117.19 795.705 1128.93C796.578 1137.69 797.471 1146.88 798.325 1155.6C799.858 1169.92 800.479 1179.62 805.835 1189.65C812.122 1201.53 825.259 1209.39 836.32 1216.88C849.942 1225.75 861.294 1234.69 872.103 1243.43C890.537 1258.46 910.719 1272.81 931.346 1287.75C941.126 1294.5 951.236 1303.87 959.697 1309.44C966.721 1314.27 975.007 1314.53 984.283 1313.87C1009.02 1312.37 1041.35 1311.11 1066.19 1309.36H1066.48L1066.5 1309.33ZM1430.68 1224.31C1442.59 1225.75 1454.23 1222.35 1465.72 1219.48C1482.95 1215.38 1500.22 1210.32 1517.49 1204.54C1532.03 1199.98 1548.64 1191.46 1547.22 1174.15C1547.47 1154.32 1547.38 1121.42 1547.55 1087.6C1547.59 1072.11 1547.65 1059.42 1547.69 1047.33C1547.47 1036.72 1548.73 1031.44 1544.72 1024.63C1535.31 1010.74 1509.96 1013.18 1493.57 1010.5C1472.75 1008.54 1455.01 1006.08 1435 1006.12C1417.44 1005.69 1405.7 1011.34 1399.86 1029.02C1395.53 1041.94 1393.09 1056.22 1390.25 1069.65C1382.24 1106.13 1373.95 1135.05 1370.67 1171.02C1368.46 1189.63 1379.37 1200.93 1395.3 1209.78C1406.28 1215.93 1417.58 1222.8 1430.31 1224.25L1430.68 1224.29V1224.31ZM663.324 1307.27C669.107 1303.58 674.638 1297.72 679.663 1292.64C690.608 1281.36 702.29 1270.5 712.749 1258.68C721.481 1248.94 729.107 1238.3 738.577 1229.74C749.289 1219.58 763.784 1212.45 770.828 1199.01C775.466 1190.16 776.281 1179.85 776.009 1170.03C775.718 1159.56 775.117 1144.83 774.496 1130.47C773.933 1119.21 773.137 1106.62 771.74 1095.71C770.343 1084.9 768.596 1076.05 758.603 1071.9C740.75 1065.21 721.016 1061.46 703.435 1053.31C680.265 1043.26 645.569 1028.24 624.379 1019.04C605.168 1009.82 590.556 1007.81 574.741 1025.37C560.808 1041.12 558.246 1064.39 553.609 1084.63C546.933 1115.8 539.889 1146.34 533.175 1177.35C529.391 1195.75 524.133 1216.53 520.872 1233.9C518.757 1244.53 519.728 1256.5 528.634 1263.88C535.252 1269.76 544.1 1272.98 552.328 1276.26C561.448 1279.83 569.773 1282.72 579.728 1286.21C592.651 1290.66 608.137 1296.21 621.565 1301.84C634.935 1306.82 649.877 1316.06 663.072 1307.42L663.344 1307.27H663.324ZM395.866 1298.61C413.466 1301.89 428 1287.22 442.942 1280.16C458.369 1270.98 477.619 1265.49 488.874 1251.4C495.627 1242.84 499.061 1232.03 501.778 1221.56C505.31 1207.51 507.794 1195.34 510.704 1181.89C518.156 1147.08 526.112 1114.79 534.398 1079.22C536.086 1068.58 544.061 1051.97 533.486 1047.31C525.859 1044.25 513.208 1046.56 504.475 1048.56C492.852 1051.27 481.209 1053.99 469.41 1056.63C451.732 1060.94 434.501 1063.5 416.803 1066.91C403.666 1069.57 390.529 1073.14 377.528 1075.78C366.719 1078.07 355.6 1079.49 345.257 1083.43C319.623 1092.06 317.411 1121.58 308.834 1143.49C304.061 1157.77 296.046 1172.69 296.512 1185.56C297.424 1207.18 317.256 1220.47 330.49 1235.39C347.004 1252.25 358.627 1268.5 375.063 1285.24C380.788 1291.01 387.483 1296.75 395.516 1298.56L395.866 1298.63V1298.61ZM91.576 1254.95C102.365 1239.56 129.455 1215.54 120.936 1195.9C118.821 1190.86 115.25 1186.26 111.893 1181.83C105.567 1173.66 97.3199 1163.09 91.5178 1155.62C84.8231 1147.1 78.8269 1138.66 72.9472 1129.48C66.2913 1119.33 59.1503 1107.59 52.2615 1097.96C45.1011 1088.28 34.5642 1081.8 33.0506 1098.86C31.7504 1112.83 33.5357 1130.97 33.3804 1145.89C33.264 1170.46 32.7983 1194.39 33.2252 1218.99C33.4581 1244.07 34.797 1268.96 33.885 1294.07C32.2161 1321.34 44.7712 1332.03 59.0726 1303.5C67.7467 1285.98 79.2344 1270.42 91.3237 1255.26L91.576 1254.95ZM1219.82 1518.48C1232.63 1511.2 1245.42 1500.45 1258.01 1493.46C1274.93 1483.45 1293.02 1474.82 1310.56 1465.66C1346.03 1447.22 1391.73 1418.31 1427.45 1397.17C1439.47 1390.36 1435.04 1377.77 1433.33 1366.51C1431.08 1353.07 1429.98 1338.55 1427.73 1323.71C1425.44 1308.06 1421.32 1293.41 1419.96 1277.89C1418.94 1268.36 1418.43 1258.58 1414.49 1249.77C1410.63 1240.4 1402.07 1233.99 1393.5 1228.46C1380.42 1220.37 1366.95 1211.37 1353.06 1204.89C1331.28 1194.81 1307.03 1203.08 1284.9 1208.9C1255.68 1217.25 1226.53 1224.8 1197.33 1232.19C1184.68 1235.29 1176.68 1243.44 1168.34 1252.93C1158.02 1264.69 1146.95 1278.57 1141.87 1293.41C1136.84 1306.84 1139.45 1320.37 1143.05 1333.66C1151.46 1366.22 1161.51 1401.56 1174.08 1433.29C1182.35 1454.54 1190 1477.71 1196.55 1499.36C1200.73 1512.33 1206.04 1526.1 1219.57 1518.57L1219.84 1518.44L1219.82 1518.48ZM252.87 1453.72C263.446 1459.74 273.75 1466.28 284.17 1472.56C297.773 1480.87 312.055 1488.24 325.425 1497.31C335.865 1504.51 354.319 1518.32 361.965 1500.88C366.661 1489.87 366.292 1476.87 368.233 1465.17C371.997 1439.73 374.753 1406.16 377.702 1379.15C378.867 1359.41 384.941 1340.32 377.722 1321.12C373.589 1311.19 366.254 1302.92 359.287 1294.85C350.012 1284.22 342.424 1275.54 332.508 1264.58C326.143 1257.44 319.526 1249.6 313.375 1242.14C292.709 1217.19 284.869 1205.68 260.186 1203.08C246.583 1201.61 225.645 1203.18 209.811 1204.81C198.769 1205.95 188.659 1207.18 177.928 1209C167.566 1210.75 157.068 1213.02 148.2 1218.82C138.07 1225.17 130.483 1235.35 122.1 1245.54C107.585 1262.97 94.4091 1279.91 83.1154 1299.76C76.8864 1311.58 67.9795 1324.93 68.7557 1337.79C70.9097 1350.76 88.8011 1357.37 99.0663 1364.17C125.612 1379.44 149.364 1394.92 175.347 1409.15C187.262 1415.9 199.642 1422.01 211.615 1428.75C225.509 1436.8 238.666 1445.36 252.54 1453.51L252.87 1453.7V1453.72ZM862.09 1511.72C875.479 1494.55 884.716 1475.92 893.778 1456.44C904.509 1433.81 915.977 1414.1 926.146 1391.59C930.919 1380.95 935.945 1369.77 940.35 1358.97C943.707 1350.58 946.967 1341.05 944.406 1333.06C941.126 1322.33 930.221 1314.91 920.867 1307.35C906.644 1296.58 893.448 1284.35 879.865 1272.88C865.505 1260.99 850.641 1251.92 836.766 1240.96C823.629 1231.61 808.047 1212.05 790.718 1214.18C783.189 1215.56 776.048 1221.94 769.935 1227.53C749.793 1246.16 731.533 1264.83 712.924 1285.01C700.233 1300.11 676.714 1322.66 675.317 1342.74C674.715 1355.24 680.595 1366.07 682.729 1378.45C685.349 1393.74 686.824 1409.71 688.939 1425.29C694.295 1466.74 690.142 1467.75 727.516 1489.37C742.574 1498.39 762.115 1509.22 778.765 1518.73C785.77 1522.73 793.629 1527.13 800.052 1530.84C806.805 1534.62 812.646 1538.54 820.058 1539.77C837.872 1542 851.359 1525.02 861.837 1512.05L862.09 1511.72ZM1527.37 1337.5C1538.8 1329.39 1545.47 1319.77 1546.21 1306.75C1547.07 1293.76 1546.68 1278.08 1546.95 1263.61C1546.25 1251.75 1550.35 1229.36 1540.29 1223.24C1527.41 1217.36 1513.11 1227.28 1500.75 1230.42C1482.91 1236.5 1454.49 1234.77 1445.83 1254.29C1444.3 1258.21 1443.93 1263.12 1443.97 1267.62C1444.88 1291.94 1448.41 1374.57 1463.02 1376.78C1470.75 1376.27 1477.15 1370.74 1485.28 1365.93C1498.46 1357.24 1514.78 1346.14 1527.08 1337.72L1527.39 1337.5H1527.37ZM576.972 1518.98C591.08 1511.36 605.517 1502.97 619.974 1495.25C631.558 1488.86 643.803 1483.26 654.146 1474.93C675.938 1457.78 665.789 1430.88 663.247 1407.36C658.493 1375.89 657.503 1345.54 627.095 1329.37C603.926 1316.66 581.591 1309 556.287 1299.39C538.977 1293.43 518.292 1283.69 501.759 1280.55C483.887 1278.47 472.826 1285.61 456.099 1295.14C444.688 1301.62 431.823 1309 420.685 1315.34C414.126 1319.15 409.507 1321.98 406.713 1325.78C404.481 1328.79 403.278 1332.54 402.483 1337.52C401.241 1345.56 400.581 1356.69 399.65 1366.38C398.078 1385.92 395.439 1405.05 393.129 1424.52C390.51 1446.64 389.714 1469.05 386.415 1491.04C383.66 1510.06 379.837 1528.55 398.854 1540.04C406.752 1545.43 417.851 1551.27 428 1557.23C438.324 1562.97 448.259 1569.79 459.63 1572.58C479.656 1577.96 503.932 1557.95 522.561 1548.19C540.064 1538.08 558.829 1528.84 576.642 1519.18L576.972 1519V1518.98ZM1031.05 1526.72C1060.85 1527.68 1097.43 1527.66 1126.5 1529.58C1148.08 1530.47 1191.2 1546.46 1181.05 1507.61C1176.43 1491.81 1169.13 1475.67 1163.41 1460.57C1155.69 1440.35 1147.69 1417.41 1140.57 1397.43C1134.5 1381.18 1128.99 1361.55 1121.94 1345.23C1114.63 1327.35 1101.39 1326.05 1084.18 1328.09C1055.44 1331.37 1026.82 1334.9 997.808 1336.59C990.104 1337.04 981.566 1337.81 974.988 1341.66C962.103 1349.22 959.231 1365.68 952.983 1378.25C935.984 1413.57 919.296 1452.52 899.134 1486.73C874.839 1525.54 898.164 1523.56 931.657 1524.28C963.869 1525.08 998.914 1525.91 1030.8 1526.69H1031.07L1031.05 1526.72ZM767.044 1758.06C793.551 1769.35 795.201 1741.48 795.123 1721.59C795.337 1707.99 796.074 1694.43 797.277 1680.9C799.606 1654.55 801.954 1628 803.351 1601.73C803.758 1587.6 806.436 1572.08 799.722 1559.07C795.55 1550.65 787.866 1544.99 779.832 1540.17C766.21 1532.06 752.238 1524.75 738.771 1516.34C729.263 1510.5 719.366 1503.83 709.741 1497.25C698.428 1489.19 684.903 1482.48 671.261 1488.92C655.155 1496.78 639.029 1509.43 623.331 1517C599.327 1529.38 576.293 1541.38 552.134 1554.36C543.091 1559.19 533.738 1564.06 524.559 1568.52C515.691 1573.45 499.837 1578.94 498.363 1588.45C499.546 1611.18 600.316 1655.54 623.35 1671.24C648.46 1686.35 686.979 1709.19 714.883 1726.21C731.261 1736.03 749.056 1748.72 766.734 1757.92L767.044 1758.06ZM1025.09 1635.69C1036.52 1628.39 1047.78 1620.22 1058.72 1613.51C1079.7 1601.07 1102.91 1588.45 1124.04 1576.36C1142.2 1566.91 1150.21 1555.83 1125.22 1552.03C1106.81 1550.24 1093.13 1550.4 1073.12 1549.24C1046.18 1548.19 1017.35 1546.29 991.055 1544.83C963.985 1543.7 933.558 1542.79 907.167 1541.84C878.138 1540.66 856.288 1537.88 836.145 1562.41C824.425 1576.38 826.986 1589.06 824.852 1605.8C822.309 1635.43 818.506 1679.12 816.042 1707.87C815.227 1717.42 814.528 1725.22 814.062 1730.99C813.461 1736.54 813.422 1743.74 816.721 1747.52C825.007 1757.9 838.92 1746.88 849.496 1740.4C879.574 1721.85 906.741 1703.47 936.954 1686.66C966.566 1670.91 996.469 1653.87 1024.78 1635.92L1025.11 1635.71L1025.09 1635.69Z" fill="url(#paint0_linear_2_455)"/>
<defs>
<linearGradient id="paint0_linear_2_455" x1="73.1352" y1="1348.97" x2="903.813" y2="845.55" gradientUnits="userSpaceOnUse">
<stop stop-color="#24B101"/>
<stop offset="1" stop-color="#D7E700"/>
</linearGradient>
</defs>
</svg>
